<svg width="19" height="20" viewBox="0 0 19 20" fill="none" xmlns="http://www.w3.org/2000/svg">
<path d="M18.1622 2.16216H15.5027C15.1784 0.918919 13.8811 0 12.3243 0C10.7676 0 9.47027 0.918919 9.14595 2.16216H0V3.24324H9.14595C9.47027 4.48649 10.7676 5.40541 12.3243 5.40541C13.8811 5.40541 15.1784 4.48649 15.5027 3.24324H18.1622V2.16216ZM12.3243 4.32432C11.2216 4.32432 10.3784 3.62162 10.3784 2.7027C10.3784 1.78378 11.2216 1.08108 12.3243 1.08108C13.427 1.08108 14.2703 1.78378 14.2703 2.7027C14.2703 3.62162 13.427 4.32432 12.3243 4.32432ZM0 10.8108H2.65946C2.98378 12.0541 4.28108 12.973 5.83784 12.973C7.3946 12.973 8.69189 12.0541 9.01622 10.8108H18.1622V9.72973H9.01622C8.69189 8.48649 7.3946 7.56757 5.83784 7.56757C4.28108 7.56757 2.98378 8.48649 2.65946 9.72973H0V10.8108ZM5.83784 8.64865C6.94054 8.64865 7.78378 9.35135 7.78378 10.2703C7.78378 11.1892 6.94054 11.8919 5.83784 11.8919C4.73514 11.8919 3.89189 11.1892 3.89189 10.2703C3.89189 9.35135 4.73514 8.64865 5.83784 8.64865Z" fill="#808080"/>
<path d="M18.1622 16.7566H15.5027C15.1784 15.5134 13.8811 14.5945 12.3243 14.5945C10.7676 14.5945 9.47027 15.5134 9.14595 16.7566H0V17.8377H9.14595C9.47027 19.081 10.7676 19.9999 12.3243 19.9999C13.8811 19.9999 15.1784 19.081 15.5027 17.8377H18.1622V16.7566ZM12.3243 18.9188C11.2216 18.9188 10.3784 18.2161 10.3784 17.2972C10.3784 16.3783 11.2216 15.6756 12.3243 15.6756C13.427 15.6756 14.2703 16.3783 14.2703 17.2972C14.2703 18.2161 13.427 18.9188 12.3243 18.9188Z" fill="#808080"/>
</svg>
