<svg width="13" height="13" viewBox="0 0 13 13" fill="none" xmlns="http://www.w3.org/2000/svg">
<path opacity="0.4" d="M11.9889 13L7.43889 8.45C7.07778 8.73889 6.6625 8.96759 6.19306 9.13611C5.72361 9.30463 5.22407 9.38889 4.69444 9.38889C3.38241 9.38889 2.27211 8.93461 1.36356 8.02606C0.454519 7.11702 0 6.00648 0 4.69444C0 3.38241 0.454519 2.27187 1.36356 1.36283C2.27211 0.454278 3.38241 0 4.69444 0C6.00648 0 7.11702 0.454278 8.02606 1.36283C8.93461 2.27187 9.38889 3.38241 9.38889 4.69444C9.38889 5.22407 9.30463 5.72361 9.13611 6.19306C8.96759 6.6625 8.73889 7.07778 8.45 7.43889L13 11.9889L11.9889 13ZM4.69444 7.94444C5.59722 7.94444 6.3647 7.62859 6.99689 6.99689C7.62859 6.3647 7.94444 5.59722 7.94444 4.69444C7.94444 3.79167 7.62859 3.02418 6.99689 2.392C6.3647 1.7603 5.59722 1.44444 4.69444 1.44444C3.79167 1.44444 3.02418 1.7603 2.392 2.392C1.7603 3.02418 1.44444 3.79167 1.44444 4.69444C1.44444 5.59722 1.7603 6.3647 2.392 6.99689C3.02418 7.62859 3.79167 7.94444 4.69444 7.94444Z" fill="black"/>
</svg>
