<svg width="18" height="18" viewBox="0 0 18 18" fill="none" xmlns="http://www.w3.org/2000/svg">
<g opacity="0.5">
<path d="M13.9411 7.11765C15.6305 7.11765 17 5.74817 17 4.05882C17 2.36948 15.6305 1 13.9411 1C12.2518 1 10.8823 2.36948 10.8823 4.05882C10.8823 5.74817 12.2518 7.11765 13.9411 7.11765Z" fill="#D9D9D9" stroke="black" stroke-width="0.941176"/>
<path d="M13.9411 17C15.6305 17 17 15.6305 17 13.9411C17 12.2518 15.6305 10.8823 13.9411 10.8823C12.2518 10.8823 10.8823 12.2518 10.8823 13.9411C10.8823 15.6305 12.2518 17 13.9411 17Z" fill="#D9D9D9" stroke="black" stroke-width="0.941176"/>
<path d="M4.05882 7.11765C5.74817 7.11765 7.11765 5.74817 7.11765 4.05882C7.11765 2.36948 5.74817 1 4.05882 1C2.36948 1 1 2.36948 1 4.05882C1 5.74817 2.36948 7.11765 4.05882 7.11765Z" fill="#D9D9D9" stroke="black" stroke-width="0.941176"/>
<path d="M4.05882 17C5.74817 17 7.11765 15.6305 7.11765 13.9411C7.11765 12.2518 5.74817 10.8823 4.05882 10.8823C2.36948 10.8823 1 12.2518 1 13.9411C1 15.6305 2.36948 17 4.05882 17Z" fill="#D9D9D9" stroke="black" stroke-width="0.941176"/>
</g>
</svg>
