<svg width="18" height="14" viewBox="0 0 18 14" fill="none" xmlns="http://www.w3.org/2000/svg">
<path d="M16.8655 5.14286H14.9927V5C14.9927 4.88634 14.9471 4.77733 14.8661 4.69695C14.785 4.61658 14.6751 4.57143 14.5605 4.57143H9.95029C9.83567 4.57143 9.72573 4.61658 9.64468 4.69695C9.56363 4.77733 9.51809 4.88634 9.51809 5V5.14286H4.61979V1.85714C4.61979 1.59193 4.72604 1.33757 4.91516 1.15004C5.10429 0.9625 5.3608 0.857143 5.62826 0.857143C5.89572 0.857143 6.15223 0.9625 6.34136 1.15004C6.53049 1.33757 6.63673 1.59193 6.63673 1.85714C6.63673 1.97081 6.68227 2.07982 6.76332 2.16019C6.84438 2.24056 6.95431 2.28571 7.06894 2.28571C7.18357 2.28571 7.2935 2.24056 7.37455 2.16019C7.45561 2.07982 7.50114 1.97081 7.50114 1.85714C7.50114 1.3646 7.30382 0.892226 6.95259 0.543945C6.60135 0.195663 6.12498 0 5.62826 0C5.13154 0 4.65517 0.195663 4.30393 0.543945C3.9527 0.892226 3.75538 1.3646 3.75538 1.85714V5.14286H1.8825C1.61503 5.14286 1.35852 5.24821 1.1694 5.43575C0.980273 5.62329 0.874023 5.87764 0.874023 6.14286V8.42857C0.874023 9.45155 1.28384 10.4326 2.01333 11.156C2.74281 11.8793 3.73221 12.2857 4.76385 12.2857H4.90792V13.5714C4.90792 13.6851 4.95346 13.7941 5.03451 13.8745C5.11557 13.9548 5.2255 14 5.34013 14C5.45475 14 5.56468 13.9548 5.64574 13.8745C5.72679 13.7941 5.77233 13.6851 5.77233 13.5714V12.2857H12.9757V13.5714C12.9757 13.6851 13.0213 13.7941 13.1023 13.8745C13.1834 13.9548 13.2933 14 13.4079 14C13.5225 14 13.6325 13.9548 13.7135 13.8745C13.7946 13.7941 13.8401 13.6851 13.8401 13.5714V12.2857H13.9842C15.0158 12.2857 16.0052 11.8793 16.7347 11.156C17.4642 10.4326 17.874 9.45155 17.874 8.42857V6.14286C17.874 5.87764 17.7678 5.62329 17.5786 5.43575C17.3895 5.24821 17.133 5.14286 16.8655 5.14286ZM10.3825 5.42857H14.1283V8H10.3825V5.42857ZM17.0096 8.42857C17.0096 9.22422 16.6909 9.98728 16.1235 10.5499C15.5561 11.1125 14.7866 11.4286 13.9842 11.4286H4.76385C3.96146 11.4286 3.19193 11.1125 2.62456 10.5499C2.05718 9.98728 1.73843 9.22422 1.73843 8.42857V6.14286C1.73843 6.10497 1.75361 6.06863 1.78063 6.04184C1.80764 6.01505 1.84429 6 1.8825 6H9.51809V8.42857C9.51809 8.54224 9.56363 8.65125 9.64468 8.73162C9.72573 8.81199 9.83567 8.85714 9.95029 8.85714H14.5605C14.6751 8.85714 14.785 8.81199 14.8661 8.73162C14.9471 8.65125 14.9927 8.54224 14.9927 8.42857V6H16.8655C16.9038 6 16.9404 6.01505 16.9674 6.04184C16.9944 6.06863 17.0096 6.10497 17.0096 6.14286V8.42857Z" fill="#2D2D2D"/>
</svg>
