<svg width="17" height="14" viewBox="0 0 17 14" fill="none" xmlns="http://www.w3.org/2000/svg">
<path d="M12.374 2.96809e-08C13.0087 -9.77163e-05 13.6197 0.241233 14.0831 0.67504C14.5464 1.10885 14.8274 1.70265 14.869 2.336L14.874 2.5V5.05C15.4099 5.15959 15.895 5.4418 16.2551 5.85342C16.6153 6.26503 16.8306 6.78336 16.868 7.329L16.874 7.5V13.5C16.8743 13.6249 16.8277 13.7455 16.7435 13.8378C16.6593 13.9301 16.5436 13.9876 16.4192 13.9989C16.2948 14.0102 16.1706 13.9745 16.0712 13.8988C15.9718 13.8231 15.9043 13.7129 15.882 13.59L15.874 13.5V11H1.87402V13.5C1.87425 13.6249 1.82769 13.7455 1.74352 13.8378C1.65934 13.9301 1.54364 13.9876 1.4192 13.9989C1.29477 14.0102 1.17061 13.9745 1.07119 13.8988C0.97177 13.8231 0.904284 13.7129 0.882023 13.59L0.874023 13.5V7.5C0.873906 6.92367 1.07292 6.36501 1.43737 5.91855C1.80183 5.47209 2.30934 5.16527 2.87402 5.05V2.5C2.87393 1.86528 3.11526 1.25429 3.54906 0.790955C3.98287 0.327621 4.57667 0.0466377 5.21002 0.00500014L5.37402 2.96809e-08H12.374ZM14.374 6H3.37402C3.0013 5.99999 2.64192 6.13876 2.36592 6.38925C2.08991 6.63974 1.91705 6.98402 1.88102 7.355L1.87402 7.5V10H15.874V7.5C15.874 7.12727 15.7353 6.7679 15.4848 6.49189C15.2343 6.21589 14.89 6.04303 14.519 6.007L14.374 6ZM12.374 1H5.37402C5.00114 1.00002 4.64163 1.13892 4.3656 1.38962C4.08958 1.64032 3.91682 1.98484 3.88102 2.356L3.87402 2.5V5H4.87402V4.5C4.87402 4.36739 4.9267 4.24021 5.02047 4.14645C5.11424 4.05268 5.24142 4 5.37402 4H7.87402C8.00663 4 8.13381 4.05268 8.22758 4.14645C8.32135 4.24021 8.37402 4.36739 8.37402 4.5V5H9.37402V4.5C9.37402 4.36739 9.4267 4.24021 9.52047 4.14645C9.61424 4.05268 9.74142 4 9.87402 4H12.374C12.5066 4 12.6338 4.05268 12.7276 4.14645C12.8213 4.24021 12.874 4.36739 12.874 4.5V5H13.874V2.5C13.874 2.12727 13.7353 1.7679 13.4848 1.49189C13.2343 1.21589 12.89 1.04303 12.519 1.007L12.374 1Z" fill="#2D2D2D"/>
</svg>
