<svg width="20" height="18" viewBox="0 0 20 18" fill="none" xmlns="http://www.w3.org/2000/svg">
<path d="M9.99304 9.01052V9.02051M5.99831 9.01052V9.02051M13.9878 9.01052V9.02051M1.00488 17L2.30317 13.1051C1.1811 11.4456 0.775179 9.48032 1.1609 7.57472C1.54661 5.66912 2.69772 3.95286 4.40018 2.74505C6.10264 1.53724 8.24061 0.920078 10.4166 1.0083C12.5925 1.09653 14.6584 1.88414 16.2301 3.2247C17.8018 4.56526 18.7724 6.36755 18.9613 8.29645C19.1502 10.2254 18.5447 12.1496 17.2573 13.7115C15.97 15.2733 14.0883 16.3664 11.9622 16.7876C9.83618 17.2088 7.61039 16.9294 5.6987 16.0013L1.00488 17Z" stroke="#2D2D2D" stroke-linecap="round" stroke-linejoin="round"/>
</svg>
