<svg width="10" height="10" viewBox="0 0 10 10" fill="none" xmlns="http://www.w3.org/2000/svg">
<path d="M9.13185 0.213931C9.06632 0.148266 8.98848 0.09617 8.90279 0.0606248C8.8171 0.0250796 8.72524 0.00678323 8.63247 0.00678323C8.5397 0.00678323 8.44784 0.0250796 8.36215 0.0606248C8.27647 0.09617 8.19863 0.148266 8.1331 0.213931L4.66935 3.6706L1.2056 0.206848C1.14002 0.141269 1.06217 0.0892489 0.976483 0.0537578C0.8908 0.0182668 0.798966 6.90985e-10 0.706223 0C0.613481 -6.90986e-10 0.521646 0.0182668 0.435963 0.0537578C0.35028 0.0892489 0.272427 0.141269 0.206848 0.206848C0.141269 0.272427 0.0892489 0.35028 0.0537578 0.435963C0.0182668 0.521646 -6.90985e-10 0.613481 0 0.706223C6.90986e-10 0.798966 0.0182668 0.8908 0.0537578 0.976483C0.0892489 1.06217 0.141269 1.14002 0.206848 1.2056L3.6706 4.66935L0.206848 8.1331C0.141269 8.19868 0.0892489 8.27653 0.0537578 8.36221C0.0182668 8.4479 0 8.53973 0 8.63247C0 8.72521 0.0182668 8.81705 0.0537578 8.90273C0.0892489 8.98842 0.141269 9.06627 0.206848 9.13185C0.272427 9.19743 0.35028 9.24945 0.435963 9.28494C0.521646 9.32043 0.613481 9.3387 0.706223 9.3387C0.798966 9.3387 0.8908 9.32043 0.976483 9.28494C1.06217 9.24945 1.14002 9.19743 1.2056 9.13185L4.66935 5.6681L8.1331 9.13185C8.19868 9.19743 8.27653 9.24945 8.36221 9.28494C8.4479 9.32043 8.53973 9.3387 8.63247 9.3387C8.72521 9.3387 8.81705 9.32043 8.90273 9.28494C8.98842 9.24945 9.06627 9.19743 9.13185 9.13185C9.19743 9.06627 9.24945 8.98842 9.28494 8.90273C9.32043 8.81705 9.3387 8.72521 9.3387 8.63247C9.3387 8.53973 9.32043 8.4479 9.28494 8.36221C9.24945 8.27653 9.19743 8.19868 9.13185 8.1331L5.6681 4.66935L9.13185 1.2056C9.40101 0.936431 9.40101 0.483098 9.13185 0.213931Z" fill="#2791D6"/>
</svg>
