<svg width="18" height="18" viewBox="0 0 18 18" fill="none" xmlns="http://www.w3.org/2000/svg">
<path d="M9.37307 14.0001H8.62641C8.47789 14.0001 8.33545 13.9369 8.23043 13.8244C8.12541 13.7119 8.06641 13.5593 8.06641 13.4001V11.6001C8.06641 11.441 8.12541 11.2884 8.23043 11.1759C8.33545 11.0633 8.47789 11.0001 8.62641 11.0001H9.37307C9.52159 11.0001 9.66403 11.0633 9.76905 11.1759C9.87407 11.2884 9.93307 11.441 9.93307 11.6001V13.4001C9.93307 13.4789 9.91859 13.5569 9.89045 13.6297C9.8623 13.7025 9.82105 13.7687 9.76905 13.8244C9.71705 13.8801 9.65532 13.9243 9.58738 13.9545C9.51943 13.9846 9.44661 14.0001 9.37307 14.0001Z" fill="#2791D6"/>
<path d="M0.600098 6.5L9.0001 1L17.4001 6.5M15.5334 10V16.4C15.5334 16.5591 15.4744 16.7117 15.3694 16.8243C15.2644 16.9368 15.122 17 14.9734 17H3.02676C2.87824 17 2.73581 16.9368 2.63078 16.8243C2.52576 16.7117 2.46676 16.5591 2.46676 16.4V10" stroke="#2791D6" stroke-linecap="round" stroke-linejoin="round"/>
</svg>
