<svg width="14" height="16" viewBox="0 0 14 16" fill="none" xmlns="http://www.w3.org/2000/svg">
<path d="M12.7185 15.4282V16H13.2904V15.4282H12.7185ZM1.2818 15.4282H0.709961V16H1.2818V15.4282ZM9.85935 4.00057C9.8592 4.3759 9.78513 4.74751 9.64136 5.09421C9.49759 5.44091 9.28694 5.75589 9.02144 6.02118C8.75594 6.28646 8.44079 6.49686 8.09398 6.64035C7.74717 6.78384 7.37549 6.85762 7.00017 6.85747V8.00114C9.21089 8.00114 11.003 6.21015 11.003 4.00057H9.85935ZM7.00017 6.85747C6.62484 6.85762 6.25317 6.78384 5.90636 6.64035C5.55955 6.49686 5.24439 6.28646 4.97889 6.02118C4.71339 5.75589 4.50274 5.44091 4.35898 5.09421C4.21521 4.74751 4.14113 4.3759 4.14098 4.00057H2.99731C2.99746 4.52608 3.10112 5.04642 3.30236 5.53187C3.5036 6.01733 3.79849 6.45839 4.17019 6.82988C4.54189 7.20136 4.98312 7.496 5.46869 7.69697C5.95426 7.89794 6.47466 8.00129 7.00017 8.00114V6.85747ZM4.14098 4.00057C4.14113 3.62525 4.21521 3.25363 4.35898 2.90693C4.50274 2.56024 4.71339 2.24525 4.97889 1.97997C5.24439 1.71468 5.55955 1.50428 5.90636 1.36079C6.25317 1.2173 6.62484 1.14352 7.00017 1.14367V1.63491e-07C6.47466 -0.000150047 5.95426 0.103208 5.46869 0.304175C4.98312 0.505141 4.54189 0.799779 4.17019 1.17127C3.79849 1.54275 3.5036 1.98382 3.30236 2.46927C3.10112 2.95472 2.99746 3.47506 2.99731 4.00057H4.14098ZM7.00017 1.14367C7.75807 1.14367 8.48497 1.44459 9.02111 1.9803C9.55724 2.51601 9.85875 3.24267 9.85935 4.00057H11.003C11.0029 3.47506 10.8992 2.95472 10.698 2.46927C10.4967 1.98382 10.2018 1.54275 9.83014 1.17127C9.45844 0.799779 9.01721 0.505141 8.53165 0.304175C8.04608 0.103208 7.52568 -0.000150047 7.00017 1.63491e-07V1.14367ZM12.7185 14.8563H1.2818V16H12.7185V14.8563ZM1.85363 15.4282V13.1465H0.709961V15.4282H1.85363ZM4.71282 10.2862H9.28752V9.14253H4.71282V10.2862ZM12.1467 13.1454V15.4282H13.2904V13.1454H12.1467ZM9.28752 10.2862C10.0458 10.2862 10.7731 10.5874 11.3093 11.1236C11.8455 11.6598 12.1467 12.3871 12.1467 13.1454H13.2904C13.2904 12.0838 12.8686 11.0656 12.118 10.3149C11.3673 9.56426 10.3491 9.14253 9.28752 9.14253V10.2862ZM1.85363 13.1465C1.85363 12.3882 2.15487 11.6598 2.69107 11.1236C3.22727 10.5874 3.95452 10.2862 4.71282 10.2862V9.14253C3.6512 9.14253 2.63305 9.56426 1.88237 10.3149C1.13169 11.0656 0.709961 12.0849 0.709961 13.1465H1.85363Z" fill="#2D2D2D"/>
</svg>
