<svg width="20" height="16" viewBox="0 0 20 16" fill="none" xmlns="http://www.w3.org/2000/svg">
<path d="M3.84612 4.30769C3.84612 4.14448 3.91095 3.98796 4.02636 3.87255C4.14177 3.75714 4.29829 3.69231 4.4615 3.69231H13.0769C13.2401 3.69231 13.3966 3.75714 13.512 3.87255C13.6274 3.98796 13.6923 4.14448 13.6923 4.30769C13.6923 4.4709 13.6274 4.62743 13.512 4.74284C13.3966 4.85824 13.2401 4.92308 13.0769 4.92308H4.4615C4.29829 4.92308 4.14177 4.85824 4.02636 4.74284C3.91095 4.62743 3.84612 4.4709 3.84612 4.30769ZM10.6153 7.38462C10.4521 7.38462 10.2956 7.44945 10.1802 7.56486C10.0648 7.68026 9.99996 7.83679 9.99996 8C9.99996 8.16321 10.0648 8.31974 10.1802 8.43514C10.2956 8.55055 10.4521 8.61539 10.6153 8.61539H13.0769C13.2401 8.61539 13.3966 8.55055 13.512 8.43514C13.6274 8.31974 13.6923 8.16321 13.6923 8C13.6923 7.83679 13.6274 7.68026 13.512 7.56486C13.3966 7.44945 13.2401 7.38462 13.0769 7.38462H10.6153ZM9.99996 11.6923C9.99996 11.5291 10.0648 11.3726 10.1802 11.2572C10.2956 11.1418 10.4521 11.0769 10.6153 11.0769H13.0769C13.2401 11.0769 13.3966 11.1418 13.512 11.2572C13.6274 11.3726 13.6923 11.5291 13.6923 11.6923C13.6923 11.8555 13.6274 12.012 13.512 12.1275C13.3966 12.2429 13.2401 12.3077 13.0769 12.3077H10.6153C10.4521 12.3077 10.2956 12.2429 10.1802 12.1275C10.0648 12.012 9.99996 11.8555 9.99996 11.6923ZM4.4615 7.38462C4.29829 7.38462 4.14177 7.44945 4.02636 7.56486C3.91095 7.68026 3.84612 7.83679 3.84612 8V11.6923C3.84612 11.8555 3.91095 12.012 4.02636 12.1275C4.14177 12.2429 4.29829 12.3077 4.4615 12.3077H8.15381C8.31702 12.3077 8.47355 12.2429 8.58895 12.1275C8.70436 12.012 8.76919 11.8555 8.76919 11.6923V8C8.76919 7.83679 8.70436 7.68026 8.58895 7.56486C8.47355 7.44945 8.31702 7.38462 8.15381 7.38462H4.4615ZM5.07689 11.0769V8.61539H7.53842V11.0769H5.07689ZM0.153809 2.46154C0.153809 1.8087 0.413148 1.1826 0.874776 0.720968C1.3364 0.25934 1.96251 0 2.61535 0H14.923C15.5759 0 16.202 0.25934 16.6636 0.720968C17.1252 1.1826 17.3846 1.8087 17.3846 2.46154V3.69231C18.0374 3.69231 18.6635 3.95165 19.1251 4.41328C19.5868 4.8749 19.8461 5.50101 19.8461 6.15385V12.9231C19.8461 13.7391 19.5219 14.5218 18.9449 15.0988C18.3679 15.6758 17.5852 16 16.7692 16H3.23073C2.41468 16 1.63205 15.6758 1.05502 15.0988C0.477983 14.5218 0.153809 13.7391 0.153809 12.9231V2.46154ZM16.1538 2.46154C16.1538 2.13512 16.0241 1.82207 15.7933 1.59125C15.5625 1.36044 15.2495 1.23077 14.923 1.23077H2.61535C2.28893 1.23077 1.97588 1.36044 1.74506 1.59125C1.51425 1.82207 1.38458 2.13512 1.38458 2.46154V12.9231C1.38458 13.4127 1.57908 13.8823 1.9253 14.2285C2.27152 14.5747 2.7411 14.7692 3.23073 14.7692H16.7692C17.2588 14.7692 17.7284 14.5747 18.0746 14.2285C18.4208 13.8823 18.6153 13.4127 18.6153 12.9231V6.15385C18.6153 5.82743 18.4857 5.51438 18.2549 5.28356C18.024 5.05275 17.711 4.92308 17.3846 4.92308V12.9231C17.3846 13.0863 17.3197 13.2428 17.2043 13.3582C17.0889 13.4736 16.9324 13.5385 16.7692 13.5385C16.606 13.5385 16.4495 13.4736 16.3341 13.3582C16.2186 13.2428 16.1538 13.0863 16.1538 12.9231V2.46154Z" fill="#2D2D2D"/>
</svg>
