<svg width="15" height="14" viewBox="0 0 15 14" fill="none" xmlns="http://www.w3.org/2000/svg">
<path d="M1.22402 14H14.524C14.6168 14 14.7059 13.9631 14.7715 13.8975C14.8371 13.8318 14.874 13.7428 14.874 13.65V0.35C14.874 0.257174 14.8371 0.16815 14.7715 0.102512C14.7059 0.0368748 14.6168 0 14.524 0H9.62402C9.5312 0 9.44217 0.0368748 9.37654 0.102512C9.3109 0.16815 9.27402 0.257174 9.27402 0.35V8.4H1.22402C1.1312 8.4 1.04217 8.43687 0.976536 8.50251C0.910898 8.56815 0.874023 8.65717 0.874023 8.75V13.65C0.874023 13.7428 0.910898 13.8318 0.976536 13.8975C1.04217 13.9631 1.1312 14 1.22402 14ZM1.57402 9.1H4.02402V10.85C4.02402 10.9428 4.0609 11.0318 4.12654 11.0975C4.19217 11.1631 4.2812 11.2 4.37402 11.2C4.46685 11.2 4.55587 11.1631 4.62151 11.0975C4.68715 11.0318 4.72402 10.9428 4.72402 10.85V9.1H6.82402V10.85C6.82402 10.9428 6.8609 11.0318 6.92654 11.0975C6.99217 11.1631 7.0812 11.2 7.17402 11.2C7.26685 11.2 7.35587 11.1631 7.42151 11.0975C7.48715 11.0318 7.52402 10.9428 7.52402 10.85V9.1H9.27402V10.85C9.27402 10.9428 9.3109 11.0318 9.37654 11.0975C9.44217 11.1631 9.5312 11.2 9.62402 11.2C9.71685 11.2 9.80587 11.1631 9.87151 11.0975C9.93715 11.0318 9.97402 10.9428 9.97402 10.85V9.1H11.724C11.8168 9.1 11.9059 9.06313 11.9715 8.99749C12.0371 8.93185 12.074 8.84283 12.074 8.75C12.074 8.65717 12.0371 8.56815 11.9715 8.50251C11.9059 8.43687 11.8168 8.4 11.724 8.4H9.97402V6.65H11.724C11.8168 6.65 11.9059 6.61313 11.9715 6.54749C12.0371 6.48185 12.074 6.39283 12.074 6.3C12.074 6.20717 12.0371 6.11815 11.9715 6.05251C11.9059 5.98687 11.8168 5.95 11.724 5.95H9.97402V3.85H11.724C11.8168 3.85 11.9059 3.81313 11.9715 3.74749C12.0371 3.68185 12.074 3.59283 12.074 3.5C12.074 3.40717 12.0371 3.31815 11.9715 3.25251C11.9059 3.18687 11.8168 3.15 11.724 3.15H9.97402V0.7H14.174V13.3H1.57402V9.1Z" fill="#2D2D2D"/>
</svg>
