<svg width="15" height="14" viewBox="0 0 15 14" fill="none" xmlns="http://www.w3.org/2000/svg">
<path d="M13.874 3H11.874V1C11.8738 0.734865 11.7683 0.480665 11.5808 0.293186C11.3934 0.105707 11.1392 0.000264738 10.874 0H1.87402C1.60889 0.000264738 1.35469 0.105707 1.16721 0.293186C0.97973 0.480665 0.874288 0.734865 0.874023 1V10C0.874288 10.2651 0.97973 10.5193 1.16721 10.7068C1.35469 10.8943 1.60889 10.9997 1.87402 11H3.87402V13C3.87429 13.2651 3.97973 13.5193 4.16721 13.7068C4.35469 13.8943 4.60889 13.9997 4.87402 14H13.874C14.1392 13.9997 14.3934 13.8943 14.5808 13.7068C14.7683 13.5193 14.8738 13.2651 14.874 13V4C14.8738 3.73486 14.7683 3.48066 14.5808 3.29319C14.3934 3.10571 14.1392 3.00026 13.874 3ZM10.874 10H6.87402V7.5H10.874V10ZM10.874 6.5H6.87402V4H10.874V6.5ZM5.87402 6.5H1.87402V4H5.87402V6.5ZM10.874 1V3H1.87402V1H10.874ZM1.87402 10V7.5H5.87402V10H1.87402ZM13.874 13H4.87402V11H10.874C11.1392 10.9997 11.3934 10.8943 11.5808 10.7068C11.7683 10.5193 11.8738 10.2651 11.874 10V4H13.874V13Z" fill="#2D2D2D"/>
</svg>
