<svg width="17" height="16" viewBox="0 0 17 16" fill="none" xmlns="http://www.w3.org/2000/svg">
<path d="M0.610751 5.99827C0.419865 6.14353 0.265787 6.32814 0.160028 6.5383C0.0542701 6.74847 -0.000434203 6.97876 2.59531e-06 7.21197C2.59531e-06 7.53979 0.107556 7.89645 0.361623 8.19384C0.561913 8.42987 0.818723 8.59351 1.09748 8.6832V14.5561C1.09748 14.8343 1.21311 15.1011 1.41893 15.2978C1.62475 15.4945 1.90389 15.6051 2.19496 15.6051H14.816C15.1071 15.6051 15.3862 15.4945 15.592 15.2978C15.7978 15.1011 15.9135 14.8343 15.9135 14.5561V8.69736C16.1926 8.60365 16.4391 8.4379 16.6257 8.21849C16.8692 7.94078 17.0018 7.58953 17 7.22718C17 6.76929 16.7827 6.31665 16.3881 6.01821L12.9843 3.40828C12.736 3.21392 12.4286 3.10167 12.108 3.08834L11.8791 2.9121C11.8129 2.63597 11.6525 2.38872 11.4231 2.20927L11.4149 2.20298L9.5854 0.800457C9.4954 0.722655 9.39656 0.654745 9.29073 0.597999C8.97829 0.42844 8.61606 0.362133 8.26019 0.409358C7.90432 0.456583 7.57469 0.614701 7.32239 0.859201L5.79635 2.02779C5.6706 1.84933 5.50125 1.70286 5.30294 1.60105C5.10464 1.49923 4.88336 1.44516 4.65826 1.4435C4.52756 1.28082 4.35959 1.14895 4.16724 1.05803C3.97489 0.967103 3.76329 0.91954 3.54871 0.918994H3.04167C2.8585 0.918788 2.67707 0.953094 2.50778 1.01995C2.33849 1.08681 2.18464 1.18491 2.05504 1.30864C1.92544 1.43237 1.82263 1.57931 1.75248 1.74104C1.68233 1.90278 1.64622 2.07615 1.64622 2.25123V5.20523L0.610751 5.99827ZM2.7437 5.70927V2.25123C2.7437 2.09388 2.87595 1.968 3.04167 1.968H3.54871C3.70894 1.968 3.84667 2.09388 3.84667 2.25123V2.4925H4.64619C4.68488 2.49264 4.72316 2.50008 4.75883 2.51441C4.79451 2.52874 4.82686 2.54966 4.85404 2.57599C4.88122 2.60231 4.90269 2.63351 4.91722 2.66779C4.93174 2.70206 4.93903 2.73875 4.93867 2.77573V4.02824L2.7437 5.70927ZM8.48957 2.61471L14.816 7.45796V9.73273C14.816 9.68081 14.8105 9.62783 14.7995 9.57538L14.7973 9.56646L14.6892 9.09179C14.6438 8.88213 14.5133 8.69822 14.3263 8.58027C14.1394 8.46232 13.9112 8.41993 13.6916 8.46239L12.7681 8.65016C12.6409 8.5271 12.4894 8.42942 12.3224 8.36279C12.1554 8.29616 11.9762 8.26191 11.7952 8.26203C11.5167 8.26222 11.245 8.34348 11.0161 8.495C10.7872 8.64651 10.612 8.86109 10.5139 9.11015L9.45645 9.32572C9.23657 9.3688 9.04356 9.49352 8.91979 9.67249C8.79603 9.85147 8.75162 10.0701 8.79631 10.2803L8.79851 10.2887L8.90661 10.7634C8.95207 10.973 9.08254 11.1569 9.2695 11.2749C9.45645 11.3928 9.68466 11.4352 9.90422 11.3928L10.4261 11.2868V11.409H13.1698V10.7272L14.1394 10.5294C14.3302 10.4922 14.5016 10.3931 14.6249 10.249C14.7482 10.1049 14.8156 9.92462 14.816 9.7385V14.5561H7.4722C7.50023 14.5559 7.52794 14.5505 7.55374 14.54C7.57953 14.5295 7.60289 14.5142 7.62245 14.4951C7.64201 14.4759 7.65738 14.4532 7.66767 14.4282C7.67795 14.4033 7.68295 14.3767 7.68237 14.3499V13.507H7.95674C8.10593 13.5071 8.25234 13.4685 8.38031 13.3952C8.50828 13.3219 8.61301 13.2167 8.68329 13.0909C8.75357 12.9651 8.78676 12.8235 8.77932 12.681C8.77187 12.5386 8.72407 12.4008 8.64102 12.2823C8.73065 12.1864 8.78008 12.0622 8.77985 11.9335V10.8845C8.77985 10.7454 8.72204 10.612 8.61913 10.5137C8.51622 10.4153 8.37664 10.36 8.23111 10.36H7.68237V10.1156C7.68461 9.87332 7.63669 9.633 7.54137 9.40848C7.44605 9.18396 7.30521 8.97967 7.12695 8.80739C6.9487 8.63511 6.73655 8.49823 6.50273 8.40463C6.26891 8.31104 6.01802 8.26257 5.76452 8.26203C4.70161 8.26203 3.84119 9.09074 3.84119 10.1156V10.36H3.29245C3.14691 10.36 3.00734 10.4153 2.90443 10.5137C2.80152 10.612 2.7437 10.7454 2.7437 10.8845V11.9335C2.7437 12.0678 2.79638 12.19 2.88254 12.2823C2.79949 12.4008 2.75168 12.5386 2.74424 12.681C2.73679 12.8235 2.76998 12.9651 2.84027 13.0909C2.91054 13.2167 3.01527 13.3219 3.14324 13.3952C3.27122 13.4685 3.41763 13.5071 3.56682 13.507H3.84119V14.3499C3.84119 14.4653 3.93228 14.5545 4.05135 14.5561H2.19496V7.4244L3.36378 6.53012C3.45707 6.45669 3.48999 6.3413 3.46804 6.23115V6.21017C3.46804 6.13674 3.50645 6.05282 3.57779 6.00037L4.71917 5.1297C4.77953 5.08249 4.88379 5.09298 4.97159 5.11921C5.07585 5.15068 5.19657 5.13494 5.28437 5.06676L8.48957 2.61471ZM3.29245 10.8845H8.23111V11.9335H3.29245V10.8845ZM7.95674 12.9825H3.56682C3.49405 12.9825 3.42426 12.9549 3.37281 12.9057C3.32135 12.8566 3.29245 12.7898 3.29245 12.7203C3.29245 12.6507 3.32135 12.584 3.37281 12.5349C3.42426 12.4857 3.49405 12.458 3.56682 12.458H7.95674C8.02951 12.458 8.09929 12.4857 8.15075 12.5349C8.2022 12.584 8.23111 12.6507 8.23111 12.7203C8.23111 12.7898 8.2022 12.8566 8.15075 12.9057C8.09929 12.9549 8.02951 12.9825 7.95674 12.9825ZM14.0275 10.016L9.79667 10.8788C9.7581 10.8864 9.71833 10.8867 9.67966 10.8796C9.64098 10.8725 9.60415 10.8581 9.57131 10.8374C9.53846 10.8166 9.51023 10.7898 9.48826 10.7586C9.46629 10.7273 9.451 10.6922 9.44328 10.6553L9.33463 10.177C9.32662 10.1401 9.32633 10.1021 9.33376 10.0651C9.3412 10.0282 9.35621 9.99298 9.37794 9.96158C9.39967 9.93018 9.42768 9.9032 9.46037 9.8822C9.49306 9.8612 9.52977 9.84659 9.56839 9.8392L13.7992 8.9764C13.8377 8.96875 13.8775 8.96847 13.9162 8.97557C13.9549 8.98268 13.9917 8.99703 14.0245 9.0178C14.0574 9.03857 14.0856 9.06535 14.1076 9.09659C14.1296 9.12783 14.1448 9.16292 14.1526 9.19984L14.2612 9.67818C14.2692 9.71504 14.2695 9.75305 14.2621 9.79002C14.2546 9.82699 14.2396 9.86219 14.2179 9.89359C14.1962 9.92499 14.1682 9.95196 14.1355 9.97297C14.1028 9.99397 14.0661 10.0086 14.0275 10.016Z" fill="#7E7E7E"/>
</svg>
