<svg width="19" height="14" viewBox="0 0 19 14" fill="none" xmlns="http://www.w3.org/2000/svg">
<path d="M15.1129 2.21961C15.1044 2.30178 15.0993 2.39552 15.0971 2.49717L13.883 3.05443C13.7129 3.02765 12.8696 3.07483 11.6118 2.4783C11.293 2.32704 10.9814 2.2467 10.6821 2.2467C10.4113 2.24706 10.1445 2.30912 9.90343 2.42778C9.58582 2.36174 9.12823 2.19252 8.86065 2.19313C8.25518 2.19617 6.87863 2.67004 6.49737 2.71052C6.12433 2.74978 5.74022 2.84839 5.35357 3.00543C4.65088 2.80883 3.76992 2.48774 3.29808 2.3103L0 0V7.42913L2.42377 8.53756C2.45892 8.498 2.49913 8.43713 2.54283 8.36165L2.61788 8.39513C2.65462 8.48643 2.69515 8.57743 2.73948 8.66783C2.47348 9.09817 2.44182 9.583 2.6543 10.0045C2.83638 10.3652 3.17553 10.6184 3.55332 10.6893C3.5739 10.9139 3.65243 11.1312 3.7848 11.3196C4.0223 11.6565 4.39977 11.8577 4.79528 11.8577C4.83107 11.8577 4.86685 11.8562 4.90232 11.8522C4.95868 11.9986 5.04133 12.135 5.14868 12.253C5.38745 12.5169 5.72185 12.6682 6.06575 12.6682C6.09108 12.6682 6.11578 12.6676 6.1408 12.6657C6.1845 12.8252 6.25892 12.9762 6.36278 13.1107C6.60187 13.4211 6.97078 13.6059 7.35015 13.6059C7.58575 13.6059 7.8109 13.5365 8.00945 13.4065C8.39325 13.6433 8.72702 13.8098 9.0231 13.912C9.17162 13.9702 9.32615 14 9.48385 14C9.85688 14 10.2188 13.8326 10.4772 13.5398C10.5732 13.4309 10.6511 13.3091 10.7081 13.1789C10.8197 13.2113 10.9357 13.2279 11.0523 13.2282C11.4488 13.2282 11.8246 13.0416 12.0846 12.7153C12.2081 12.5607 12.2976 12.3835 12.3475 12.1946C12.3747 12.1964 12.4016 12.1973 12.4285 12.1973C12.8868 12.1973 13.3253 11.939 13.572 11.5229C13.7013 11.3065 13.77 11.0615 13.7712 10.812C14.224 10.7471 14.6227 10.4376 14.8168 9.98626C15.0081 9.54161 14.9562 9.051 14.6892 8.64196L15.9226 7.97391C15.9543 8.078 15.9853 8.17387 16.0154 8.25178L19 6.72548V0.499739L15.1129 2.21961ZM15.1126 3.14391C15.1322 3.47322 15.168 3.84543 15.2142 4.23409C14.9609 3.82504 14.6411 3.63848 14.244 3.54565L15.1126 3.14391ZM13.4571 10.374C12.7769 10.1491 11.361 8.54943 11.361 8.54943H11.3889C11.533 8.53969 11.8443 8.39391 12.1936 8.46361C11.6451 8.01074 11.0418 8.39391 10.6311 8.15926C10.7264 8.45296 11.1847 8.54548 11.3022 8.54913L12.6587 10.0654C13.2731 10.7517 12.8453 11.6008 12.2294 11.736C11.8161 11.5427 10.6492 10.2087 10.6492 10.2087C10.6891 10.2017 10.9256 10.1305 11.1666 10.161C10.6102 9.76104 9.97943 10.108 9.60513 9.85691C9.8173 10.3606 10.5162 10.2316 10.5893 10.2194L11.3151 11.1099C11.8959 11.8221 11.4396 12.6447 10.8227 12.7561C10.2758 12.5714 9.92085 11.914 9.92085 11.914C9.97595 11.9055 10.1602 11.8267 10.4224 11.8632C9.956 11.4703 9.41292 11.8267 9.08643 11.603C9.28815 12.0254 9.79102 11.9292 9.8192 11.9262C10.3221 12.6873 9.80052 13.4811 9.17732 13.5048H9.17668L9.17605 13.5051C8.80175 13.4427 8.40972 13.1551 7.96702 12.8599C8.11902 12.698 8.25328 12.4134 8.25328 12.4134C8.69788 11.6398 8.12092 10.9556 7.52527 11.0143C8.0085 11.1413 8.37077 11.7341 7.99362 12.3924L7.828 12.6603C7.64813 12.9753 7.36725 13.1655 7.16078 13.142C6.84285 13.1049 6.39477 12.6587 6.58318 12.0293C6.65602 11.9654 7.35838 10.9328 7.35838 10.9328C7.8413 10.1853 7.29917 9.46978 6.70193 9.49413C7.17757 9.64843 7.51102 10.2614 7.10093 10.8975L6.52998 11.753C6.33523 12.0555 6.08317 12.2269 5.84282 12.1952C5.46978 12.1465 5.20822 11.7092 5.26807 11.2578C5.2649 11.2606 5.6791 10.8153 5.6791 10.8153C6.22947 10.1241 5.75827 9.3523 5.16198 9.31183C5.6202 9.51696 5.89317 10.1634 5.42545 10.7517L5.22342 10.9897C5.00175 11.2691 4.7348 11.4112 4.5011 11.3552C4.09323 11.2569 3.88107 10.5234 4.07392 10.3235C4.2256 10.1661 4.65152 9.66791 4.65152 9.66791C5.20157 8.97643 4.731 8.20491 4.13408 8.16383C4.59262 8.36957 4.86558 9.016 4.39787 9.60461L4.19583 9.842C3.9729 10.1238 3.705 10.2653 3.46972 10.2078C2.97952 10.0885 2.73473 9.36113 3.20372 8.7707C3.20372 8.7707 3.04443 8.28435 2.97255 8.07648L2.73632 7.97117C3.29017 6.73096 4.1268 3.99365 4.16543 3.08426C4.5733 3.22396 5.64997 3.52161 5.76428 3.52222L5.76365 3.52283C6.92265 3.17283 8.13738 3.21148 8.69155 3.00574C8.8711 2.94 9.2283 2.93574 9.60703 3.14391C9.37048 3.34326 9.14692 3.58065 8.9148 3.80191C8.36 4.33117 6.29723 5.15657 6.69497 6.02457C7.03823 6.77356 8.00502 7.53991 9.62667 6.33683L10.5387 6.2163L11.957 6.88891L13.7747 8.68304C14.4229 9.32156 14.0559 10.1883 13.4571 10.374ZM13.9131 8.39726C13.7047 8.02291 13.0552 7.40904 12.4422 6.90717L12.4383 6.90352C12.7211 6.91448 13.0178 6.47683 13.4013 6.44304C13.1334 6.24643 12.6895 6.47348 12.5511 6.50939C11.7882 6.70661 10.6026 5.78413 10.6026 5.78413L9.46833 5.94117C9.46833 5.94117 8.11933 7.52348 6.98282 6.21996C6.36563 5.51204 8.60225 4.58743 9.15325 4.06122C9.8591 3.38709 10.488 2.5623 11.6492 3.12413C12.6138 3.59161 12.9938 3.5627 14.2877 3.77909C14.6734 3.84391 14.9406 4.01374 15.2272 4.34517C15.3621 5.43596 15.5803 6.64574 15.7896 7.48757C15.6816 7.57491 14.756 8.17326 13.9131 8.39726Z" fill="#7E7E7E"/>
</svg>
