<svg width="20" height="18" viewBox="0 0 20 18" fill="none" xmlns="http://www.w3.org/2000/svg">
<path d="M8.2142 17.1583C7.93004 17.1583 7.65752 17.0628 7.45659 16.8928C7.25566 16.7228 7.14278 16.4922 7.14278 16.2518C7.14278 16.0113 7.25566 15.7807 7.45659 15.6107C7.65752 15.4407 7.93004 15.3452 8.2142 15.3452C8.49836 15.3452 8.77087 15.4407 8.9718 15.6107C9.17273 15.7807 9.28561 16.0113 9.28561 16.2518C9.28561 16.4922 9.17273 16.7228 8.9718 16.8928C8.77087 17.0628 8.49836 17.1583 8.2142 17.1583ZM15.357 17.1583C15.0728 17.1583 14.8003 17.0628 14.5994 16.8928C14.3984 16.7228 14.2856 16.4922 14.2856 16.2518C14.2856 16.0113 14.3984 15.7807 14.5994 15.6107C14.8003 15.4407 15.0728 15.3452 15.357 15.3452C15.6411 15.3452 15.9137 15.4407 16.1146 15.6107C16.3155 15.7807 16.4284 16.0113 16.4284 16.2518C16.4284 16.4922 16.3155 16.7228 16.1146 16.8928C15.9137 17.0628 15.6411 17.1583 15.357 17.1583ZM0.714278 2.04862C0.52484 2.04862 0.34316 1.98495 0.209207 1.8716C0.0752541 1.75826 0 1.60453 0 1.44423C0 1.28394 0.0752541 1.13021 0.209207 1.01687C0.34316 0.90352 0.52484 0.839844 0.714278 0.839844H4.28567C4.45073 0.839928 4.61067 0.888384 4.73828 0.976972C4.86589 1.06556 4.95331 1.18881 4.98566 1.32577L5.72851 4.46618H19.2855C19.3921 4.46615 19.4973 4.4863 19.5934 4.52514C19.6896 4.56398 19.7743 4.62053 19.8412 4.69064C19.9082 4.76076 19.9558 4.84267 19.9805 4.93037C20.0052 5.01807 20.0064 5.10934 19.9841 5.19749L17.8412 13.6589C17.8069 13.7941 17.7188 13.9153 17.5917 14.0022C17.4646 14.0891 17.3061 14.1364 17.1427 14.1364H7.14278C6.97772 14.1363 6.81778 14.0879 6.69017 13.9993C6.56256 13.9107 6.47514 13.7874 6.44279 13.6505L3.69996 2.04862H0.714278ZM7.72849 12.9276H16.5655L18.4027 5.67496H6.01422L7.72849 12.9276Z" fill="#3B0E71"/>
</svg>
