<svg width="18" height="19" viewBox="0 0 18 19" fill="none" xmlns="http://www.w3.org/2000/svg">
<path d="M9 0.5C7.21997 0.5 5.47991 1.02784 3.99987 2.01677C2.51983 3.00571 1.36628 4.41131 0.685088 6.05585C0.00389956 7.70038 -0.17433 9.50998 0.172936 11.2558C0.520203 13.0016 1.37737 14.6053 2.63604 15.864C3.89471 17.1226 5.49836 17.9798 7.24419 18.3271C8.99002 18.6743 10.7996 18.4961 12.4442 17.8149C14.0887 17.1337 15.4943 15.9802 16.4832 14.5001C17.4722 13.0201 18 11.28 18 9.5C17.9954 7.11446 17.0457 4.82793 15.3589 3.14109C13.6721 1.45425 11.3855 0.504574 9 0.5ZM9 17.1154C7.49382 17.1154 6.02146 16.6687 4.76912 15.832C3.51678 14.9952 2.5407 13.8058 1.96431 12.4143C1.38792 11.0227 1.23711 9.49155 1.53095 8.01431C1.82479 6.53707 2.55008 5.18014 3.61511 4.11511C4.68014 3.05008 6.03708 2.32478 7.51431 2.03094C8.99155 1.7371 10.5228 1.88791 11.9143 2.4643C13.3058 3.04069 14.4952 4.01677 15.332 5.26912C16.1688 6.52146 16.6154 7.99382 16.6154 9.5C16.6131 11.519 15.81 13.4547 14.3824 14.8824C12.9547 16.31 11.019 17.1131 9 17.1154ZM11.8904 8.98942C11.9612 9.05428 12.0178 9.13317 12.0565 9.22107C12.0952 9.30897 12.1151 9.40396 12.1151 9.5C12.1151 9.59604 12.0952 9.69103 12.0565 9.77893C12.0178 9.86683 11.9612 9.94571 11.8904 10.0106L8.42885 13.126C8.30038 13.2414 8.13423 13.306 7.96154 13.3077C7.8654 13.3082 7.77023 13.2884 7.68225 13.2496C7.59427 13.2109 7.51546 13.154 7.45096 13.0827C7.32707 12.9473 7.26202 12.7682 7.27014 12.5848C7.27825 12.4014 7.35886 12.2288 7.49423 12.1048L10.3846 9.5L7.49423 6.89519C7.36338 6.77011 7.28672 6.59876 7.28068 6.41785C7.27463 6.23693 7.33969 6.06085 7.4619 5.92732C7.58412 5.79379 7.75377 5.71343 7.93451 5.70347C8.11525 5.69352 8.2927 5.75474 8.42885 5.87404L11.8904 8.98942Z" fill="#F65128"/>
</svg>
