<svg width="17" height="18" viewBox="0 0 17 18" fill="none" xmlns="http://www.w3.org/2000/svg">
<path d="M9.06667 0.000274654C9.53299 0.000274654 9.97274 0.0881639 10.3859 0.263943C10.7991 0.439721 11.1592 0.679952 11.4661 0.984635C11.7731 1.28932 12.0181 1.64966 12.201 2.06567C12.384 2.48168 12.4726 2.9182 12.4667 3.37522V4.50021H14.7333V10.1251H13.6V5.62519H11.3333V12.3751H10.2V5.62519H1.13333V15.75C1.13333 15.9082 1.16285 16.0547 1.22187 16.1895C1.2809 16.3242 1.36059 16.4414 1.46094 16.541C1.56128 16.6406 1.68229 16.7227 1.82396 16.7871C1.96562 16.8516 2.11319 16.8809 2.26667 16.875H7.93333V18H2.26667C1.95382 18 1.66163 17.9414 1.3901 17.8242C1.11858 17.707 0.876562 17.5459 0.664062 17.3408C0.451562 17.1358 0.289236 16.8985 0.177083 16.6289C0.0649306 16.3594 0.00590278 16.0664 0 15.75V4.50021H2.26667V3.37522C2.26667 2.91234 2.35521 2.47582 2.53229 2.06567C2.70937 1.65552 2.95139 1.29811 3.25833 0.993424C3.56528 0.688741 3.92535 0.44558 4.33854 0.263943C4.75174 0.0823047 5.19444 -0.00558463 5.66667 0.000274654C6.28056 0.000274654 6.85017 0.152616 7.37552 0.457299C7.90087 0.152616 8.46458 0.000274654 9.06667 0.000274654ZM11.3333 3.37522C11.3333 3.06468 11.2743 2.77465 11.1562 2.50512C11.0382 2.23559 10.8759 1.99536 10.6693 1.78443C10.4627 1.57349 10.2236 1.41236 9.95208 1.30104C9.68056 1.18971 9.38542 1.13112 9.06667 1.12526C8.80104 1.12526 8.55017 1.1692 8.31406 1.25709C8.48524 1.46803 8.62101 1.67603 8.72135 1.88111C8.8217 2.08618 8.89549 2.29126 8.94271 2.49633C8.98993 2.70141 9.0224 2.90941 9.0401 3.12034C9.05781 3.33128 9.06667 3.55686 9.06667 3.79709V4.50021H11.3333V3.37522ZM3.4 4.50021H7.93333V3.37522C7.93333 3.06468 7.87431 2.77465 7.75625 2.50512C7.63819 2.23559 7.47587 1.99536 7.26927 1.78443C7.06267 1.57349 6.82361 1.41236 6.55208 1.30104C6.28056 1.18971 5.98542 1.13112 5.66667 1.12526C5.35382 1.12526 5.06163 1.18385 4.7901 1.30104C4.51858 1.41822 4.27656 1.57935 4.06406 1.78443C3.85156 1.9895 3.68924 2.2268 3.57708 2.49633C3.46493 2.76586 3.4059 3.05882 3.4 3.37522V4.50021ZM17 12.3751V18H15.8667V12.3751H17ZM13.6 11.2501H14.7333V18H13.6V11.2501ZM11.3333 13.5001H12.4667V18H11.3333V13.5001ZM9.06667 15.75H10.2V18H9.06667V15.75Z" fill="#7E7E7E"/>
</svg>
