<svg width="15" height="15" viewBox="0 0 15 15" fill="none" xmlns="http://www.w3.org/2000/svg">
<path d="M6.8 5.4H8.2V4H6.8M7.5 13.1C4.413 13.1 1.9 10.587 1.9 7.5C1.9 4.413 4.413 1.9 7.5 1.9C10.587 1.9 13.1 4.413 13.1 7.5C13.1 10.587 10.587 13.1 7.5 13.1ZM7.5 0.5C6.58075 0.5 5.67049 0.68106 4.82122 1.03284C3.97194 1.38463 3.20026 1.90024 2.55025 2.55025C1.2375 3.86301 0.5 5.64348 0.5 7.5C0.5 9.35651 1.2375 11.137 2.55025 12.4497C3.20026 13.0998 3.97194 13.6154 4.82122 13.9672C5.67049 14.3189 6.58075 14.5 7.5 14.5C9.35651 14.5 11.137 13.7625 12.4497 12.4497C13.7625 11.137 14.5 9.35651 14.5 7.5C14.5 6.58075 14.3189 5.67049 13.9672 4.82122C13.6154 3.97194 13.0998 3.20026 12.4497 2.55025C11.7997 1.90024 11.0281 1.38463 10.1788 1.03284C9.3295 0.68106 8.41925 0.5 7.5 0.5ZM6.8 11H8.2V6.8H6.8V11Z" fill="#505056"/>
</svg>
