<svg width="17" height="20" viewBox="0 0 17 20" fill="none" xmlns="http://www.w3.org/2000/svg">
<path d="M5.5 6C5.21667 6 4.97933 5.90433 4.788 5.713C4.596 5.521 4.5 5.28333 4.5 5V4C4.5 3.71667 4.596 3.479 4.788 3.287C4.97933 3.09567 5.21667 3 5.5 3C5.78333 3 6.021 3.09567 6.213 3.287C6.40433 3.479 6.5 3.71667 6.5 4V5C6.5 5.28333 6.40433 5.521 6.213 5.713C6.021 5.90433 5.78333 6 5.5 6ZM5.5 15C5.21667 15 4.97933 14.904 4.788 14.712C4.596 14.5207 4.5 14.2833 4.5 14V11C4.5 10.7167 4.596 10.479 4.788 10.287C4.97933 10.0957 5.21667 10 5.5 10C5.78333 10 6.021 10.0957 6.213 10.287C6.40433 10.479 6.5 10.7167 6.5 11V14C6.5 14.2833 6.40433 14.5207 6.213 14.712C6.021 14.904 5.78333 15 5.5 15ZM2.5 20C1.95 20 1.47933 19.8043 1.088 19.413C0.696 19.021 0.5 18.55 0.5 18V2C0.5 1.45 0.696 0.979 1.088 0.587C1.47933 0.195667 1.95 0 2.5 0H14.5C15.05 0 15.521 0.195667 15.913 0.587C16.3043 0.979 16.5 1.45 16.5 2V18C16.5 18.55 16.3043 19.021 15.913 19.413C15.521 19.8043 15.05 20 14.5 20H2.5ZM2.5 18H14.5V9H2.5V18ZM2.5 7H14.5V2H2.5V7Z" fill="#505056"/>
</svg>
