<svg width="15" height="13" viewBox="0 0 15 13" fill="none" xmlns="http://www.w3.org/2000/svg">
<path d="M6.20637 11.9582C6.20637 12.13 6.15544 12.2979 6.06003 12.4407C5.96461 12.5835 5.82899 12.6948 5.67032 12.7605C5.51164 12.8262 5.33705 12.8434 5.1686 12.8099C5.00016 12.7764 4.84543 12.6937 4.72399 12.5723C4.60254 12.4508 4.51984 12.2961 4.48633 12.1276C4.45283 11.9592 4.47003 11.7846 4.53575 11.6259C4.60147 11.4673 4.71277 11.3316 4.85557 11.2362C4.99838 11.1408 5.16626 11.0899 5.33801 11.0899C5.56831 11.0899 5.78918 11.1814 5.95203 11.3442C6.11488 11.5071 6.20637 11.7279 6.20637 11.9582ZM11.7887 11.0899C11.6169 11.0899 11.4491 11.1408 11.3063 11.2362C11.1635 11.3316 11.0522 11.4673 10.9864 11.6259C10.9207 11.7846 10.9035 11.9592 10.937 12.1276C10.9705 12.2961 11.0532 12.4508 11.1747 12.5723C11.2961 12.6937 11.4508 12.7764 11.6193 12.8099C11.7877 12.8434 11.9623 12.8262 12.121 12.7605C12.2797 12.6948 12.4153 12.5835 12.5107 12.4407C12.6061 12.2979 12.6571 12.13 12.6571 11.9582C12.6571 11.7279 12.5656 11.5071 12.4027 11.3442C12.2399 11.1814 12.019 11.0899 11.7887 11.0899ZM14.4868 3.12577L12.8493 8.85695C12.7664 9.14201 12.5936 9.39265 12.3566 9.57149C12.1197 9.75033 11.8313 9.8478 11.5344 9.84936H5.59232C5.29544 9.8478 5.00702 9.75033 4.77006 9.57149C4.5331 9.39265 4.36028 9.14201 4.27737 8.85695L2.63989 3.13817V3.11956L2.03204 1.01069C2.02627 0.983897 2.01136 0.959952 1.98985 0.942971C1.96834 0.925991 1.94158 0.917036 1.91419 0.917649H0.872155C0.773453 0.917649 0.678794 0.87844 0.609002 0.808648C0.539209 0.738855 0.5 0.644196 0.5 0.545494C0.5 0.446793 0.539209 0.352134 0.609002 0.282341C0.678794 0.212549 0.773453 0.17334 0.872155 0.17334H1.91419C2.10342 0.17401 2.28733 0.236038 2.43831 0.350112C2.58929 0.464187 2.6992 0.624154 2.75154 0.806003L3.27875 2.65437H14.1271C14.1848 2.65437 14.2418 2.66782 14.2935 2.69366C14.3452 2.7195 14.3901 2.75701 14.4248 2.80323C14.4591 2.84867 14.4826 2.90137 14.4933 2.95729C14.5041 3.0132 14.5018 3.07084 14.4868 3.12577ZM13.6371 3.39868H3.48964L4.99687 8.65226C5.03332 8.78225 5.11119 8.8968 5.21865 8.97852C5.32612 9.06024 5.45731 9.10466 5.59232 9.10505H11.5344C11.6694 9.10466 11.8006 9.06024 11.908 8.97852C12.0155 8.8968 12.0934 8.78225 12.1298 8.65226L13.6371 3.39868Z" fill="#505056"/>
</svg>
