<svg width="19" height="20" viewBox="0 0 19 20" fill="none" xmlns="http://www.w3.org/2000/svg">
<path d="M10.5819 14.0657V14.4574L10.9622 14.5512C12.0732 14.825 13.0744 15.4113 13.8414 16.2345C14.6082 17.0575 15.1068 18.0806 15.277 19.1752L15.2775 19.1784C15.2837 19.2164 15.2814 19.2552 15.2706 19.2925C15.2597 19.3298 15.2404 19.3654 15.2131 19.3966C15.1858 19.4278 15.1509 19.4538 15.1104 19.472C15.0699 19.4902 15.0252 19.4999 14.9796 19.5H4.03386C3.98819 19.4999 3.9435 19.4902 3.90299 19.472C3.8625 19.4538 3.82766 19.4278 3.8003 19.3966C3.77298 19.3654 3.7537 19.3298 3.74287 19.2925C3.73206 19.2552 3.72973 19.2164 3.7359 19.1784L3.73646 19.1748C3.90554 18.0814 4.40238 17.059 5.167 16.2359C5.93176 15.4126 6.93061 14.8253 8.03959 14.5494L8.41887 14.455V14.0642V11.5393C8.41887 11.4724 8.44607 11.4054 8.49913 11.3538C8.55267 11.3017 8.62814 11.2701 8.70963 11.2701H10.2911C10.3726 11.2701 10.4481 11.3017 10.5016 11.3538C10.5547 11.4054 10.5819 11.4724 10.5819 11.5393V14.0657ZM14.0187 0.655183L14.0187 0.655187L14.0201 0.657821L17.9725 8.3481C17.9727 8.34839 17.9728 8.34867 17.9729 8.34896C17.9929 8.38863 18.0018 8.43167 17.9997 8.47435C17.9976 8.51735 17.9843 8.56002 17.9599 8.5984C17.9355 8.63687 17.9005 8.67023 17.8569 8.69408L18.0969 9.13269L17.8569 8.69408C17.8136 8.71777 17.764 8.73092 17.7127 8.73148H15.8265H15.3265V9.23148V11.5393C15.3265 11.6063 15.2993 11.6733 15.2462 11.7249C15.1927 11.777 15.1172 11.8086 15.0357 11.8086C14.9542 11.8086 14.8787 11.777 14.8252 11.7249C14.7721 11.6733 14.7449 11.6063 14.7449 11.5393V9.23148V8.73148H14.2449H1.2878C1.23625 8.73099 1.18634 8.71779 1.14286 8.69394C1.09913 8.66996 1.06402 8.63642 1.03964 8.59774C1.01532 8.55917 1.00214 8.51629 1.00024 8.47313C0.998341 8.42997 1.00771 8.38648 1.0283 8.34651L1.02851 8.3461L4.98209 0.653602C4.98213 0.653534 4.98216 0.653467 4.98219 0.6534C5.00467 0.609849 5.04014 0.571293 5.08633 0.543487C5.13259 0.515637 5.18705 0.50018 5.24356 0.5H13.7569C13.8137 0.500268 13.8683 0.515935 13.9146 0.544063C13.961 0.572218 13.9964 0.611218 14.0187 0.655183Z" stroke="#505056"/>
</svg>
