<svg width="29" height="20" viewBox="0 0 29 20" fill="none" xmlns="http://www.w3.org/2000/svg">
<path d="M13.2673 9.36149C13.2673 10.0402 13.802 10.6215 14.5 10.6215C15.1989 10.6215 15.7327 10.04 15.7327 9.36149C15.7327 8.68333 15.1986 8.1021 14.5 8.1021C13.8031 8.1021 13.2668 8.68218 13.2673 9.36149ZM13.2673 9.36149H13.7673L13.2673 9.36219C13.2673 9.36195 13.2673 9.36172 13.2673 9.36149ZM13.2673 15.0601C13.2673 15.7403 13.8027 16.3195 14.5 16.3195C15.1981 16.3195 15.7327 15.74 15.7327 15.0601C15.7327 14.3828 15.1989 13.8008 14.5 13.8008C13.8026 13.8008 13.2668 14.3825 13.2673 15.0601ZM13.2673 15.0601H13.7673L13.2673 15.0608C13.2673 15.0606 13.2673 15.0604 13.2673 15.0601ZM2.82 2.9405V2.4405H2.32H1.96592C1.45379 2.4405 1 1.9438 1 1.47054C1 0.997033 1.45404 0.5 1.96592 0.5H27.0341C27.5464 0.5 28 0.996902 28 1.47054C28 1.94393 27.5467 2.4405 27.0341 2.4405H26.7156H26.2156V2.9405V5.38159H2.82V2.9405ZM6.29133 16.5577H5.79133V17.0577V19.24C5.79133 19.3859 5.75797 19.4642 5.73945 19.4907C5.7372 19.494 5.73551 19.496 5.73442 19.4972C5.73055 19.4982 5.72164 19.5 5.70567 19.5H2.8343C2.83306 19.4921 2.83184 19.4835 2.83067 19.4739C2.82316 19.4128 2.82 19.3365 2.82 19.24V15.8201V13.4408H26.215V19.24C26.215 19.3287 26.2102 19.4001 26.2012 19.4559C26.1984 19.4735 26.1954 19.4881 26.1925 19.5H23.2937C23.2906 19.5 23.2878 19.4999 23.2854 19.4998C23.279 19.4868 23.2698 19.4637 23.2617 19.4271C23.2511 19.3789 23.2442 19.3164 23.2442 19.24V17.0577V16.5577H22.7442H6.29133ZM5.73298 19.4986C5.7329 19.4986 5.73306 19.4984 5.73349 19.4981L5.73298 19.4986ZM13.2673 3.66342C13.2673 4.34133 13.8017 4.9234 14.5 4.9234C15.1991 4.9234 15.7327 4.34106 15.7327 3.66342C15.7327 2.98578 15.1991 2.40344 14.5 2.40344C13.8017 2.40344 13.2673 2.98552 13.2673 3.66342ZM26.2156 11.2632H2.82V7.55862H26.2156V11.2632Z" stroke="#505056"/>
</svg>
