<svg width="39" height="24" viewBox="0 0 39 24" fill="none" xmlns="http://www.w3.org/2000/svg">
<path d="M28.6667 10.1667C28.6667 5.10392 24.5627 1 19.5 1C14.4372 1 10.3333 5.10392 10.3333 10.1667M10.3333 11.0833C4.85349 12.187 1.16666 14.2513 1.16666 16.6145C1.16666 20.1409 9.37449 23 19.5 23C29.6255 23 37.8333 20.1409 37.8333 16.6145C37.8333 14.2513 34.1465 12.187 28.6667 11.0833" stroke="#505056"/>
<path d="M10.3333 10.1666C11.25 10.9302 14 13.8333 19.5 13.8333C25 13.8333 27.75 11.0833 28.6666 10.1666M14.9166 12.9166L16.75 8.33325" stroke="#505056" stroke-linecap="round" stroke-linejoin="round"/>
</svg>
