<svg width="15" height="14" viewBox="0 0 15 14" fill="none" xmlns="http://www.w3.org/2000/svg">
<path d="M6.67978 13.7235L0.747191 7.63991C0.657303 7.54773 0.593483 7.44788 0.55573 7.34034C0.518577 7.2328 0.5 7.11758 0.5 6.99468C0.5 6.87178 0.518577 6.75656 0.55573 6.64902C0.593483 6.54149 0.657303 6.44163 0.747191 6.34946L6.67978 0.26589C6.84457 0.0969018 7.05041 0.00841395 7.2973 0.000425426C7.54479 -0.00694859 7.75843 0.0815393 7.9382 0.26589C8.11798 0.434878 8.21176 0.645959 8.21955 0.899134C8.22674 1.15292 8.14045 1.37199 7.96067 1.55634L3.55618 6.07293H13.6011C13.8558 6.07293 14.0694 6.16111 14.242 6.33747C14.414 6.51445 14.5 6.73352 14.5 6.99468C14.5 7.25585 14.414 7.47461 14.242 7.65097C14.0694 7.82795 13.8558 7.91643 13.6011 7.91643H3.55618L7.96067 12.433C8.12547 12.602 8.21176 12.8171 8.21955 13.0782C8.22674 13.3394 8.14045 13.5545 7.96067 13.7235C7.79588 13.9078 7.58614 14 7.33146 14C7.07678 14 6.85955 13.9078 6.67978 13.7235Z" fill="#2D2D2D"/>
</svg>
