<svg width="27" height="26" viewBox="0 0 27 26" fill="none" xmlns="http://www.w3.org/2000/svg">
<path d="M3.71556 4.5087C3.6618 4.54313 3.61194 4.58339 3.56688 4.62874L1.05141 7.16012C0.701023 7.51341 0.502944 7.99132 0.500033 8.49046C0.497121 8.98959 0.68961 9.46981 1.03585 9.82721L1.05228 9.84461L1.13007 9.93073L1.42916 10.2561C1.68849 10.537 2.06106 10.9415 2.52093 11.4339C3.69765 12.6955 4.88745 13.9448 6.09013 15.1814C8.82862 17.9937 12.1177 21.2115 14.0774 22.5372C16.2843 24.0369 18.2897 24.8815 19.754 25.3522C20.4871 25.587 21.0835 25.7297 21.5045 25.8132C21.7131 25.855 21.923 25.8901 22.1338 25.9185L22.1641 25.9219C22.7475 26.015 23.2636 26.0315 23.7226 25.935C24.1744 25.8454 24.589 25.6215 24.9129 25.2921L25.518 24.6832C25.563 24.638 25.6019 24.5884 25.6356 24.5362C25.9083 24.2872 26.1261 23.9835 26.275 23.6445C26.4239 23.3056 26.5005 22.9391 26.5 22.5685C26.3989 21.4437 25.3443 20.7939 24.4107 20.2198C23.9408 19.9854 23.5214 19.6603 23.1763 19.2629L22.4891 17.6484H22.4951C22.7359 17.6484 22.9667 17.5522 23.1369 17.3809C23.3071 17.2096 23.4028 16.9773 23.4028 16.735C23.4028 16.4928 23.3071 16.2604 23.1369 16.0892C22.9667 15.9179 22.7359 15.8216 22.4951 15.8216H21.7111L21.1544 14.5133C21.3509 14.4349 21.514 14.2899 21.6156 14.1034C21.7172 13.9169 21.7509 13.7005 21.711 13.4916C21.671 13.2828 21.5599 13.0945 21.3967 12.9593C21.2336 12.824 21.0287 12.7503 20.8173 12.7509H20.4041L19.9442 11.6714C20.1816 11.661 20.4055 11.5573 20.5678 11.3826C20.7301 11.2079 20.8178 10.9762 20.8122 10.7371C20.8065 10.498 20.7079 10.2707 20.5376 10.104C20.3672 9.9373 20.1386 9.84448 19.901 9.84548H19.1671L18.8118 9.01038C18.7582 8.8799 18.7254 8.78595 18.6977 8.70592C18.5825 8.32588 18.3675 7.98418 18.0753 7.71685L17.6258 7.26364C17.4187 7.06297 17.168 6.91348 16.8937 6.82696V6.43551C16.3534 4.79576 14.3825 4.22424 13.0608 5.22201L11.2213 3.33434C11.3867 3.16638 11.5175 2.96719 11.6061 2.74821C11.6948 2.52923 11.7395 2.29478 11.7378 2.05833C11.7362 1.82189 11.688 1.58811 11.5963 1.37043C11.5045 1.15275 11.3709 0.955467 11.2032 0.789913C10.6988 0.284048 10.0157 0 9.30362 0C8.59151 0 7.90844 0.284048 7.40405 0.789913L3.71556 4.5087ZM11.8947 12.4943L11.8973 11.8462C11.8973 10.3674 11.3268 8.95819 10.3068 7.90562L6.58112 4.08158L8.62548 2.02168C8.71729 1.92892 8.82771 1.85694 8.94937 1.81054C9.07103 1.76415 9.20112 1.74441 9.33097 1.75264C9.46081 1.76088 9.58741 1.79689 9.70232 1.85829C9.81723 1.91968 9.9178 2.00504 9.99732 2.10867C9.66603 2.4438 9.48006 2.89729 9.48006 3.37001C9.48006 3.84273 9.66603 4.29622 9.99732 4.63135L13.8267 8.49541C14.1726 8.83092 14.6343 9.01838 15.1147 9.01838C15.5951 9.01838 16.0568 8.83092 16.4027 8.49541L16.8522 8.94775C16.9576 9.0306 17.0322 9.14673 17.064 9.27744L17.0666 9.28614C17.1037 9.394 17.1495 9.52449 17.2222 9.69412L17.2861 9.84548H16.4701C15.9687 9.84548 15.5625 10.2543 15.5625 10.7589C15.5649 11.0003 15.6614 11.2312 15.831 11.402C16.0007 11.5727 16.2302 11.6698 16.4701 11.6722H18.0641L18.5231 12.7509H17.8445C17.3432 12.7509 16.9369 13.1598 16.9369 13.6643C16.9394 13.9058 17.0358 14.1367 17.2055 14.3074C17.3752 14.4782 17.6046 14.5752 17.8445 14.5777H19.3011L19.8301 15.8216H18.9856C18.4842 15.8216 18.0779 16.2305 18.0779 16.735C18.0779 16.9873 18.1817 17.2135 18.3459 17.3787C18.5101 17.544 18.7349 17.6397 18.9856 17.6484H20.6081L21.5875 19.9501C22.0398 20.715 22.7106 21.3249 23.5126 21.7004L23.5151 21.7021C23.95 21.9691 24.7582 22.465 24.7798 22.7129C24.7798 22.7616 24.7323 22.9104 24.5161 23.1539C23.0387 22.9681 21.5886 22.6054 20.1966 22.0735C17.6535 21.0888 15.0248 19.3395 14.0437 16.2444L14.0428 16.2427C13.6927 15.1466 12.9035 13.8705 11.9889 12.6213C11.9576 12.5789 11.9262 12.5365 11.8947 12.4943ZM2.27198 8.6111C2.25056 8.5847 2.23887 8.55167 2.23887 8.51759C2.23887 8.48351 2.25056 8.45048 2.27198 8.42408L4.20396 6.479C5.36989 7.62907 6.50275 8.81261 7.60114 10.0282C8.6445 11.1851 9.71551 12.4508 10.5964 13.653C11.4902 14.8734 12.1359 15.9599 12.3961 16.7733C12.4361 16.9003 12.4788 17.0265 12.524 17.1517L2.27371 8.61284L2.27198 8.6111Z" fill="#505056"/>
</svg>
