<svg width="15" height="15" viewBox="0 0 15 15" fill="none" xmlns="http://www.w3.org/2000/svg">
<path d="M0.5 3C0.5 2.33696 0.763392 1.70107 1.23223 1.23223C1.70107 0.763392 2.33696 0.5 3 0.5H12C12.663 0.5 13.2989 0.763392 13.7678 1.23223C14.2366 1.70107 14.5 2.33696 14.5 3V3.5H14.503V4.5H14.5V12C14.5 12.663 14.2366 13.2989 13.7678 13.7678C13.2989 14.2366 12.663 14.5 12 14.5H3C2.33696 14.5 1.70107 14.2366 1.23223 13.7678C0.763392 13.2989 0.5 12.663 0.5 12V3ZM13.5 3.5V3C13.5 2.60218 13.342 2.22064 13.0607 1.93934C12.7794 1.65804 12.3978 1.5 12 1.5H3C2.60218 1.5 2.22064 1.65804 1.93934 1.93934C1.65804 2.22064 1.5 2.60218 1.5 3V3.5H13.5ZM1.5 4.5V12C1.5 12.3978 1.65804 12.7794 1.93934 13.0607C2.22064 13.342 2.60218 13.5 3 13.5H12C12.3978 13.5 12.7794 13.342 13.0607 13.0607C13.342 12.7794 13.5 12.3978 13.5 12V4.5H1.5ZM3.003 5.5C2.87039 5.5 2.74321 5.55268 2.64945 5.64645C2.55568 5.74021 2.503 5.86739 2.503 6V10C2.503 10.1326 2.55568 10.2598 2.64945 10.3536C2.74321 10.4473 2.87039 10.5 3.003 10.5H7.003C7.13561 10.5 7.26279 10.4473 7.35655 10.3536C7.45032 10.2598 7.503 10.1326 7.503 10V6C7.503 5.86739 7.45032 5.74021 7.35655 5.64645C7.26279 5.55268 7.13561 5.5 7.003 5.5H3.003ZM6.503 6.5V9.5H3.503V6.5H6.503Z" fill="#505056"/>
</svg>
