<svg width="14" height="15" viewBox="0 0 14 15" fill="none" xmlns="http://www.w3.org/2000/svg">
<path fill-rule="evenodd" clip-rule="evenodd" d="M12.106 10.2131C12.4081 10.6687 12.7716 11.0826 13.1869 11.4437C13.2329 11.4831 13.2697 11.5315 13.2949 11.5859C13.3202 11.6402 13.3333 11.6991 13.3333 11.7587V12.33C13.3333 12.4414 13.288 12.5482 13.2072 12.627C13.1264 12.7057 13.0169 12.75 12.9027 12.75H0.930649C0.816434 12.75 0.706896 12.7057 0.626134 12.627C0.545372 12.5482 0.5 12.4414 0.5 12.33V11.7587C0.500077 11.6991 0.513175 11.6402 0.538421 11.5859C0.563668 11.5315 0.600484 11.4831 0.646421 11.4437C1.05562 11.0816 1.41336 10.6677 1.71012 10.2131C2.0399 9.58409 2.23756 8.89721 2.2915 8.19274V6.11782C2.2888 5.02162 2.69281 3.96147 3.42894 3.1331C4.16507 2.30474 5.18361 1.76408 6.29653 1.61096V1.06073C6.29653 0.912017 6.3571 0.769392 6.46492 0.664235C6.57274 0.559077 6.71897 0.5 6.87145 0.5C7.02393 0.5 7.17016 0.559077 7.27798 0.664235C7.38579 0.769392 7.44637 0.912017 7.44637 1.06073V1.58996C7.94339 1.65233 8.42646 1.79424 8.87612 2.00999V2.2746C8.88354 2.52307 8.92112 2.7698 8.98809 3.00964C8.38066 2.61577 7.66762 2.40538 6.9382 2.40481C6.4398 2.40591 5.94652 2.50288 5.4866 2.69018C5.02668 2.87747 4.60915 3.15141 4.25793 3.49631C3.90671 3.84121 3.6287 4.25028 3.4398 4.70012C3.2509 5.14996 3.15484 5.63172 3.1571 6.11782V8.19694C3.10432 9.05632 2.86194 9.89446 2.44653 10.6541C2.14921 11.1136 1.79643 11.5366 1.39575 11.9142H12.4247C12.024 11.5366 11.6712 11.1136 11.3739 10.6541C10.9585 9.89446 10.7161 9.05632 10.6633 8.19694V6.12202C10.6635 5.74605 10.6054 5.37221 10.4911 5.01316C10.791 5.18075 11.1167 5.29989 11.4557 5.36598C11.4998 5.61432 11.5229 5.86579 11.5246 6.11782V8.19274C11.5785 8.89721 11.7762 9.58409 12.106 10.2131ZM7.69589 14.158C7.48645 14.3714 7.21829 14.4926 6.93885 14.5C6.65176 14.5048 6.37294 14.3892 6.15425 14.1746C5.93557 13.96 5.79191 13.6611 5.75 13.3335H8.08333C8.04258 13.6524 7.90534 13.9445 7.69589 14.158Z" fill="#505056"/>
<path d="M11.875 4.58333C13.0026 4.58333 13.9167 3.66925 13.9167 2.54167C13.9167 1.41409 13.0026 0.5 11.875 0.5C10.7475 0.5 9.83337 1.41409 9.83337 2.54167C9.83337 3.66925 10.7475 4.58333 11.875 4.58333Z" fill="#F65128"/>
</svg>
