<svg width="14" height="15" viewBox="0 0 14 15" fill="none" xmlns="http://www.w3.org/2000/svg">
<path fill-rule="evenodd" clip-rule="evenodd" d="M0.791451 14.2068C0.97782 14.3943 1.23052 14.4997 1.49408 14.5H6.46449V13.5H1.49408V1.5H9.44674V3.5H10.4408V1.5C10.4406 1.23486 10.3357 0.980665 10.1494 0.793186C9.963 0.605707 9.71031 0.500265 9.44674 0.5H1.49408C1.23052 0.500265 0.97782 0.605707 0.791451 0.793186C0.605081 0.980665 0.500263 1.23486 0.5 1.5V13.5C0.500263 13.7651 0.605081 14.0193 0.791451 14.2068ZM13.0636 7.06603C13.3005 7.50636 13.4241 7.99933 13.4231 8.5C13.4228 8.92117 13.3342 9.33754 13.1629 9.72184C12.9916 10.1061 12.7415 10.4497 12.429 10.73V14.5L10.4408 13.5535L8.45266 14.5V10.73C8.08169 10.3962 7.79966 9.97434 7.63228 9.50283C7.4649 9.03131 7.41749 8.52515 7.49438 8.03049C7.57127 7.53582 7.77001 7.06838 8.07248 6.67077C8.37495 6.27316 8.77153 5.95802 9.22609 5.75409C9.68064 5.55015 10.1787 5.4639 10.6749 5.50319C11.1711 5.54248 11.6496 5.70608 12.0668 5.97905C12.484 6.25203 12.8267 6.62571 13.0636 7.06603ZM10.4408 12.4465L11.4349 12.92V11.325C10.7925 11.5584 10.0892 11.5584 9.44674 11.325V12.92L10.4408 12.4465ZM9.33626 10.1629C9.66321 10.3827 10.0476 10.5 10.4408 10.5C10.9679 10.4993 11.4732 10.2884 11.8459 9.91348C12.2187 9.53855 12.4283 9.03023 12.429 8.5C12.429 8.10444 12.3124 7.71776 12.0939 7.38886C11.8755 7.05996 11.565 6.80362 11.2017 6.65224C10.8384 6.50087 10.4386 6.46126 10.053 6.53843C9.66729 6.6156 9.31303 6.80608 9.03498 7.08579C8.75693 7.36549 8.56757 7.72186 8.49086 8.10982C8.41415 8.49778 8.45352 8.89991 8.604 9.26537C8.75448 9.63082 9.00931 9.94318 9.33626 10.1629ZM6.46449 6.5H2.98521V7.5H6.46449V6.5ZM7.95562 3.5H2.98521V4.5H7.95562V3.5Z" fill="#505056"/>
</svg>
