<svg width="15" height="15" viewBox="0 0 15 15" fill="none" xmlns="http://www.w3.org/2000/svg">
<path d="M8.92219 0.5C9.03081 0.500003 9.13663 0.533604 9.2244 0.595963C9.31218 0.658321 9.37738 0.74622 9.41062 0.847L9.97498 2.556C10.212 2.669 10.4388 2.796 10.6553 2.939L12.4571 2.561C12.5634 2.53889 12.6741 2.55022 12.7733 2.59335C12.8725 2.63648 12.9551 2.70919 13.0092 2.801L14.4314 5.2C14.4857 5.29176 14.5087 5.39795 14.4971 5.50327C14.4854 5.60859 14.4398 5.70759 14.3667 5.786L13.1303 7.116C13.1483 7.37103 13.1483 7.62697 13.1303 7.882L14.3667 9.214C14.4398 9.29241 14.4854 9.39141 14.4971 9.49673C14.5087 9.60205 14.4857 9.70824 14.4314 9.8L13.0092 12.2C12.9549 12.2916 12.8723 12.3641 12.7731 12.4071C12.6739 12.45 12.5633 12.4612 12.4571 12.439L10.6553 12.061C10.4398 12.203 10.212 12.331 9.976 12.444L9.41062 14.153C9.37738 14.2538 9.31218 14.3417 9.2244 14.404C9.13663 14.4664 9.03081 14.5 8.92219 14.5H6.07781C5.96919 14.5 5.86337 14.4664 5.7756 14.404C5.68782 14.3417 5.62262 14.2538 5.58938 14.153L5.02605 12.445C4.78966 12.3323 4.56164 12.2037 4.34369 12.06L2.54287 12.439C2.43663 12.4611 2.32593 12.4498 2.22672 12.4066C2.12751 12.3635 2.04491 12.2908 1.99082 12.199L0.568632 9.8C0.514325 9.70824 0.491322 9.60205 0.50294 9.49673C0.514558 9.39141 0.560198 9.29241 0.633277 9.214L1.86974 7.882C1.85183 7.62763 1.85183 7.37237 1.86974 7.118L0.633277 5.786C0.560198 5.70759 0.514558 5.60859 0.50294 5.50327C0.491322 5.39795 0.514325 5.29176 0.568632 5.2L1.99082 2.8C2.04506 2.70837 2.12773 2.63587 2.22692 2.59293C2.32612 2.54998 2.43674 2.5388 2.54287 2.561L4.34369 2.94C4.56122 2.797 4.78902 2.668 5.02605 2.555L5.59041 0.847C5.62354 0.746545 5.68843 0.658879 5.77579 0.59655C5.86316 0.534221 5.96852 0.500426 6.07679 0.5H8.92116H8.92219ZM8.54663 1.5H6.45337L5.87054 3.267L5.47754 3.454C5.28434 3.54614 5.09784 3.65105 4.91934 3.768L4.55609 4.008L2.69268 3.616L1.64605 5.384L2.92355 6.762L2.89277 7.186C2.87803 7.39509 2.87803 7.60491 2.89277 7.814L2.92355 8.238L1.64399 9.616L2.69165 11.384L4.55507 10.993L4.91831 11.232C5.09681 11.349 5.28331 11.4539 5.47651 11.546L5.86951 11.733L6.45337 13.5H8.54868L9.13357 11.732L9.52554 11.546C9.71853 11.4541 9.9047 11.3492 10.0827 11.232L10.4449 10.993L12.3094 11.384L13.356 9.616L12.0775 8.238L12.1083 7.814C12.123 7.60458 12.123 7.39442 12.1083 7.185L12.0775 6.761L13.357 5.384L12.3094 3.616L10.4449 4.006L10.0827 3.768C9.90472 3.65081 9.71854 3.54589 9.52554 3.454L9.13357 3.268L8.54766 1.5H8.54663ZM7.5 4.5C8.31642 4.5 9.09941 4.81607 9.67671 5.37868C10.254 5.94129 10.5783 6.70435 10.5783 7.5C10.5783 8.29565 10.254 9.05871 9.67671 9.62132C9.09941 10.1839 8.31642 10.5 7.5 10.5C6.68358 10.5 5.90059 10.1839 5.32329 9.62132C4.746 9.05871 4.42167 8.29565 4.42167 7.5C4.42167 6.70435 4.746 5.94129 5.32329 5.37868C5.90059 4.81607 6.68358 4.5 7.5 4.5ZM7.5 5.5C6.95572 5.5 6.43373 5.71071 6.04886 6.08579C5.664 6.46086 5.44778 6.96957 5.44778 7.5C5.44778 8.03043 5.664 8.53914 6.04886 8.91421C6.43373 9.28929 6.95572 9.5 7.5 9.5C8.04428 9.5 8.56627 9.28929 8.95114 8.91421C9.336 8.53914 9.55222 8.03043 9.55222 7.5C9.55222 6.96957 9.336 6.46086 8.95114 6.08579C8.56627 5.71071 8.04428 5.5 7.5 5.5Z" fill="#505056"/>
</svg>
