<svg width="22" height="21" viewBox="0 0 22 21" fill="none" xmlns="http://www.w3.org/2000/svg">
<path d="M19 9C19 6.87827 18.1571 4.84344 16.6569 3.34315C15.1566 1.84285 13.1217 1 11 1C8.87827 1 6.84344 1.84285 5.34315 3.34315C3.84285 4.84344 3 6.87827 3 9" stroke="white" stroke-width="1.5" stroke-linecap="round" stroke-linejoin="round"/>
<path d="M19 15.9998V16.4998C19 17.0302 18.7893 17.5389 18.4142 17.914C18.0391 18.289 17.5304 18.4998 17 18.4998H13.5M1 13.4378V11.5618C1.00007 11.1158 1.1492 10.6826 1.4237 10.3311C1.69821 9.97958 2.08232 9.72991 2.515 9.62175L4.255 9.18575C4.34342 9.16373 4.43569 9.16214 4.52481 9.18109C4.61393 9.20005 4.69757 9.23905 4.76937 9.29514C4.84118 9.35124 4.89926 9.42295 4.93922 9.50484C4.97918 9.58672 4.99997 9.67664 5 9.76775V15.2308C5.00016 15.3221 4.97947 15.4122 4.93952 15.4943C4.89957 15.5764 4.84141 15.6483 4.76946 15.7045C4.69752 15.7608 4.61369 15.7998 4.52436 15.8188C4.43503 15.8377 4.34257 15.836 4.254 15.8138L2.514 15.3788C2.08151 15.2704 1.69762 15.0207 1.42331 14.6692C1.149 14.3177 1.00001 13.8846 1 13.4388V13.4378ZM21 13.4378V11.5618C20.9999 11.1158 20.8508 10.6826 20.5763 10.3311C20.3018 9.97958 19.9177 9.72991 19.485 9.62175L17.745 9.18575C17.6566 9.16373 17.5643 9.16214 17.4752 9.18109C17.3861 9.20005 17.3024 9.23905 17.2306 9.29514C17.1588 9.35124 17.1007 9.42295 17.0608 9.50484C17.0208 9.58672 17 9.67664 17 9.76775V15.2308C16.9999 15.322 17.0206 15.412 17.0604 15.494C17.1003 15.576 17.1584 15.6478 17.2302 15.7041C17.3021 15.7603 17.3857 15.7994 17.4749 15.8184C17.5641 15.8374 17.6565 15.8358 17.745 15.8138L19.485 15.3788C19.9177 15.2706 20.3018 15.0209 20.5763 14.6694C20.8508 14.3179 20.9999 13.8847 21 13.4388V13.4378Z" stroke="white" stroke-width="1.5"/>
<path d="M12.5 20H9.5C9.10218 20 8.72064 19.842 8.43934 19.5607C8.15804 19.2794 8 18.8978 8 18.5C8 18.1022 8.15804 17.7206 8.43934 17.4393C8.72064 17.158 9.10218 17 9.5 17H12.5C12.8978 17 13.2794 17.158 13.5607 17.4393C13.842 17.7206 14 18.1022 14 18.5C14 18.8978 13.842 19.2794 13.5607 19.5607C13.2794 19.842 12.8978 20 12.5 20Z" stroke="white" stroke-width="1.5"/>
</svg>
