<svg width="19" height="20" viewBox="0 0 19 20" fill="none" xmlns="http://www.w3.org/2000/svg">
<path d="M0.742188 10.1867H18.9182M6.19499 16.4543H13.4654M6.19499 16.4543C5.23087 16.4543 4.30625 16.0581 3.62451 15.3529C2.94278 14.6476 2.55979 13.6911 2.55979 12.6938V5.17266C2.55979 4.1753 2.94278 3.21879 3.62451 2.51355C4.30625 1.80831 5.23087 1.41211 6.19499 1.41211H8.61845V3.29239M6.19499 16.4543V19.5881M13.4654 16.4543C14.4295 16.4543 15.3541 16.0581 16.0359 15.3529C16.7176 14.6476 17.1006 13.6911 17.1006 12.6938V10.1867M13.4654 16.4543V19.5881M6.80085 5.17266H10.4361" stroke="black" stroke-width="1.51467"/>
</svg>
