<svg width="16" height="13" viewBox="0 0 16 13" fill="none" xmlns="http://www.w3.org/2000/svg">
<path d="M15.4245 8.15244H15.4396H15.4245ZM2.83004 7.05086C3.73126 7.05086 3.90545 8.15244 5.35196 8.15244C6.82876 8.15244 6.93478 7.05086 7.87388 7.05086C8.7751 7.05086 8.94929 8.15244 10.3958 8.15244C11.8726 8.15244 11.9786 7.05086 12.9177 7.05086C13.8189 7.05086 13.978 8.1304 15.4245 8.15244V5.94929C14.5233 5.94929 14.3491 4.84771 12.9026 4.84771C11.4258 4.84771 11.3197 5.94929 10.3806 5.94929C9.47942 5.94929 9.30523 4.84771 7.85873 4.84771C6.38193 4.84771 6.2759 5.94929 5.33681 5.94929C4.43558 5.94929 4.2614 4.84771 2.81489 4.84771C1.33809 4.84771 1.23206 5.94929 0.292969 5.94929V8.15244C1.7319 8.15244 1.93638 7.05086 2.83004 7.05086ZM12.9177 9.25401C11.4409 9.25401 11.3349 10.3556 10.3958 10.3556C9.49457 10.3556 9.32038 9.25401 7.87388 9.25401C6.39708 9.25401 6.28348 10.3556 5.34438 10.3556C4.40529 10.3556 4.29926 9.25401 2.82246 9.25401C1.34566 9.25401 1.23206 10.3556 0.292969 10.3556V12.5587C1.76977 12.5587 1.89094 11.4572 2.82246 11.4572C3.76156 11.4572 3.86758 12.5587 5.34438 12.5587C6.82118 12.5587 6.93478 11.4572 7.87388 11.4572C8.7751 11.4572 8.94929 12.5587 10.3958 12.5587C11.865 12.5587 11.9786 11.4572 12.9177 11.4572C13.8189 11.4572 13.9931 12.5587 15.4396 12.5587V10.3556C14.5005 10.3556 14.3945 9.25401 12.9177 9.25401ZM2.83004 2.64456C3.73126 2.64456 3.90545 3.74613 5.35196 3.74613C6.82876 3.74613 6.93478 2.64456 7.87388 2.64456C8.7751 2.64456 8.94929 3.74613 10.3958 3.74613C11.8726 3.74613 11.9786 2.64456 12.9177 2.64456C13.8189 2.64456 13.978 3.7241 15.4245 3.74613V1.54298C14.5233 1.54298 14.3491 0.441406 12.9026 0.441406C11.4258 0.441406 11.3197 1.54298 10.3806 1.54298C9.47942 1.54298 9.30523 0.441406 7.85873 0.441406C6.38193 0.441406 6.2759 1.54298 5.33681 1.54298C4.43558 1.54298 4.2614 0.441406 2.81489 0.441406C1.33809 0.441406 1.23206 1.54298 0.292969 1.54298V3.74613C1.7319 3.74613 1.93638 2.64456 2.83004 2.64456Z" fill="black"/>
</svg>
