<svg width="17" height="23" viewBox="0 0 17 23" fill="none" xmlns="http://www.w3.org/2000/svg">
<path d="M8.32713 3.4322C7.52603 3.4322 6.74291 3.66663 6.07681 4.10583C5.41072 4.54504 4.89156 5.1693 4.58499 5.89968C4.27842 6.63005 4.19821 7.43374 4.3545 8.2091C4.51078 8.98446 4.89655 9.69668 5.46302 10.2557C6.02949 10.8147 6.75121 11.1954 7.53693 11.3496C8.32264 11.5038 9.13705 11.4247 9.87718 11.1221C10.6173 10.8196 11.2499 10.3073 11.695 9.64997C12.14 8.99265 12.3776 8.21985 12.3776 7.4293C12.3776 6.3692 11.9509 5.35253 11.1912 4.60292C10.4316 3.85332 9.40138 3.4322 8.32713 3.4322ZM8.32713 10.0313C7.80564 10.0313 7.29587 9.87865 6.86227 9.59275C6.42866 9.30684 6.09071 8.90047 5.89115 8.42503C5.69158 7.94958 5.63937 7.42642 5.74111 6.92169C5.84284 6.41696 6.09396 5.95333 6.46271 5.58944C6.83146 5.22555 7.30127 4.97774 7.81274 4.87735C8.32421 4.77695 8.85436 4.82848 9.33615 5.02541C9.81794 5.22235 10.2297 5.55585 10.5195 5.98373C10.8092 6.41162 10.9638 6.91468 10.9638 7.4293C10.9619 8.11817 10.6833 8.7782 10.1891 9.26465C9.69479 9.75111 9.0252 10.0243 8.32713 10.0243V10.0313Z" fill="black"/>
<path d="M8.32713 0.139648C6.12532 0.141463 4.0137 1.00303 2.45347 2.53616C0.893244 4.0693 0.0112044 6.14942 0 8.3222C0 11.5799 1.85204 14.3074 3.20927 16.2955L3.45668 16.6582C4.80703 18.5895 6.25565 20.4521 7.79697 22.2388L8.3342 22.8596L8.87144 22.2388C10.4126 20.452 11.8612 18.5894 13.2117 16.6582L13.4591 16.2885C14.8093 14.3004 16.6613 11.5799 16.6613 8.3222C16.6501 6.14821 15.7671 4.06704 14.2054 2.5337C12.6436 1.00037 10.5302 0.13962 8.32713 0.139648ZM12.2786 15.4863L12.0242 15.856C10.8083 17.6557 9.1966 19.6717 8.32713 20.6693C7.49301 19.6717 5.84596 17.6557 4.63011 15.856L4.3827 15.4863C3.13151 13.6447 1.41377 11.1264 1.41377 8.29429C1.41377 7.39838 1.59259 6.51124 1.94002 5.68352C2.28745 4.8558 2.79669 4.10372 3.43865 3.47021C4.08061 2.83671 4.84274 2.33418 5.6815 1.99133C6.52027 1.64848 7.41926 1.47202 8.32713 1.47202C9.23501 1.47202 10.134 1.64848 10.9728 1.99133C11.8115 2.33418 12.5736 2.83671 13.2156 3.47021C13.8576 4.10372 14.3668 4.8558 14.7142 5.68352C15.0617 6.51124 15.2405 7.39838 15.2405 8.29429C15.2405 11.1543 13.5298 13.6726 12.2786 15.4863Z" fill="black"/>
</svg>
