<svg width="16" height="16" viewBox="0 0 16 16" fill="none" xmlns="http://www.w3.org/2000/svg">
<path d="M6.64 4.41667C6.56589 4.49294 6.50705 4.58377 6.46689 4.6839C6.42673 4.78404 6.40605 4.89148 6.40605 5C6.40605 5.10852 6.42673 5.21596 6.46689 5.3161C6.50705 5.41623 6.56589 5.50706 6.64 5.58333L8.16 7.16667H0.8C0.36 7.16667 0 7.54167 0 8C0 8.45833 0.36 8.83333 0.8 8.83333H8.16L6.64 10.4167C6.56589 10.4929 6.50705 10.5838 6.46689 10.6839C6.42673 10.784 6.40605 10.8915 6.40605 11C6.40605 11.1085 6.42673 11.216 6.46689 11.3161C6.50705 11.4162 6.56589 11.5071 6.64 11.5833C6.952 11.9083 7.448 11.9083 7.76 11.5833L10.632 8.59167C10.7062 8.51457 10.765 8.423 10.8051 8.32219C10.8453 8.22138 10.866 8.11331 10.866 8.00417C10.866 7.89503 10.8453 7.78696 10.8051 7.68615C10.765 7.58534 10.7062 7.49376 10.632 7.41667L7.76 4.41667C7.68678 4.33947 7.59958 4.27817 7.50345 4.23634C7.40732 4.19451 7.30418 4.17297 7.2 4.17297C7.09582 4.17297 6.99268 4.19451 6.89655 4.23634C6.80042 4.27817 6.71322 4.33947 6.64 4.41667ZM14.4 13.8333H8.8C8.36 13.8333 8 14.2083 8 14.6667C8 15.125 8.36 15.5 8.8 15.5H14.4C15.28 15.5 16 14.75 16 13.8333V2.16667C16 1.25 15.28 0.5 14.4 0.5H8.8C8.36 0.5 8 0.875 8 1.33333C8 1.79167 8.36 2.16667 8.8 2.16667H14.4V13.8333Z" fill="white"/>
</svg>
