<svg width="19" height="19" viewBox="0 0 19 19" fill="none" xmlns="http://www.w3.org/2000/svg">
<path d="M17.6962 1.18474C17.1978 0.689846 16.5239 0.412109 15.8214 0.412109C15.119 0.412109 14.4451 0.689846 13.9467 1.18474C13.9277 1.21314 13.8993 1.23208 13.8899 1.26048L11.1724 4.12914L3.07685 1.18474C3.00832 1.16197 2.93479 1.15877 2.86454 1.1755C2.79429 1.19222 2.7301 1.22821 2.67918 1.27941L0.406739 3.55162C0.366423 3.5903 0.335413 3.63763 0.316045 3.69004C0.296677 3.74244 0.289455 3.79856 0.294925 3.85417C0.300395 3.90977 0.318413 3.96341 0.347622 4.01104C0.37683 4.05866 0.416469 4.09905 0.46355 4.12914L6.89265 8.41792L5.05577 10.2546H2.94429C2.89448 10.253 2.84493 10.2624 2.79912 10.282C2.75332 10.3016 2.71237 10.3311 2.67918 10.3682L0.406739 12.6404C0.360473 12.6848 0.326541 12.7404 0.30828 12.8018C0.290019 12.8632 0.288056 12.9283 0.302585 12.9907C0.316823 13.0537 0.346912 13.1119 0.389998 13.16C0.433083 13.208 0.487735 13.2443 0.548766 13.2653L4.33616 14.5434L5.61441 18.3304C5.63541 18.3914 5.67166 18.4461 5.71971 18.4892C5.76777 18.5322 5.82604 18.5623 5.88899 18.5766H5.97421C6.02385 18.5769 6.07303 18.567 6.11865 18.5475C6.16428 18.5279 6.20536 18.4991 6.23933 18.4629L8.51176 16.1907C8.54771 16.1586 8.57642 16.1192 8.59601 16.0751C8.6156 16.0311 8.62561 15.9833 8.62539 15.9351V13.8333L10.4717 12.1576L14.7515 18.4251C14.7837 18.4694 14.8247 18.5065 14.872 18.5342C14.9192 18.5619 14.9717 18.5796 15.0261 18.586C15.082 18.5921 15.1385 18.5849 15.1911 18.5652C15.2437 18.5455 15.291 18.5137 15.3291 18.4724L17.6015 16.2002C17.6527 16.1493 17.6887 16.0851 17.7054 16.0149C17.7222 15.9446 17.719 15.8711 17.6962 15.8026L14.7515 7.70785L17.753 4.88654L17.8193 4.80133C18.2587 4.29411 18.4903 3.63957 18.4674 2.96888C18.4446 2.29819 18.1691 1.66091 17.6962 1.18474ZM17.1565 4.39422L17.1281 4.4321L14.0508 7.32915C13.9962 7.37986 13.9574 7.44521 13.9389 7.51739C13.9204 7.58958 13.9231 7.66556 13.9467 7.73626L16.9008 15.8404L15.1208 17.6203L10.8505 11.3718C10.8198 11.3272 10.7806 11.2891 10.7351 11.2599C10.6896 11.2306 10.6387 11.2107 10.5854 11.2014H10.538C10.4425 11.2017 10.3509 11.2391 10.2824 11.3055L7.991 13.3789C7.91417 13.4537 7.86994 13.5557 7.86791 13.6629V15.7742L6.13517 17.5067L4.98949 14.1268C4.97147 14.0715 4.94063 14.0213 4.8995 13.9801C4.85836 13.939 4.80809 13.9082 4.75277 13.8901L1.37252 12.7446L3.10526 11.012H5.21673C5.26654 11.0136 5.31609 11.0043 5.3619 10.9846C5.40771 10.965 5.44865 10.9356 5.48185 10.8984L7.75429 8.6262C7.7946 8.58752 7.82561 8.54019 7.84498 8.48778C7.86435 8.43538 7.87157 8.37926 7.8661 8.32365C7.86063 8.26805 7.84261 8.21441 7.8134 8.16679C7.78419 8.11916 7.74455 8.07877 7.69747 8.04869L1.26837 3.7599L3.03898 1.98001L11.144 4.93387C11.2147 4.95742 11.2907 4.96012 11.3629 4.94165C11.4351 4.92319 11.5004 4.88433 11.5511 4.82973L14.5527 1.65811L14.5811 1.62971C14.9537 1.32757 15.4272 1.17812 15.9058 1.21155C16.3844 1.24498 16.8324 1.45881 17.1594 1.80983C17.4865 2.16085 17.668 2.62289 17.6675 3.10261C17.6669 3.58233 17.4843 4.04395 17.1565 4.39422Z" fill="black"/>
</svg>
