<svg width="24" height="24" viewBox="0 0 24 24" fill="none" xmlns="http://www.w3.org/2000/svg">
<path d="M12 0C14.3734 0 16.6934 0.703787 18.6668 2.02236C20.6402 3.34094 22.1783 5.21508 23.0865 7.4078C23.9948 9.60051 24.2324 12.0133 23.7694 14.3411C23.3064 16.6689 22.1635 18.807 20.4853 20.4853C18.807 22.1635 16.6689 23.3064 14.3411 23.7694C12.0133 24.2324 9.60051 23.9948 7.4078 23.0865C5.21509 22.1783 3.34094 20.6402 2.02236 18.6668C0.703787 16.6934 0 14.3734 0 12C0.00621796 8.81931 1.2725 5.77068 3.52159 3.52159C5.77068 1.2725 8.81931 0.00621837 12 0ZM12 22.5882C14.0942 22.5882 16.1413 21.9672 17.8825 20.8038C19.6237 19.6403 20.9809 17.9867 21.7822 16.0519C22.5836 14.1172 22.7933 11.9883 22.3848 9.93434C21.9762 7.88042 20.9678 5.99378 19.487 4.51299C18.0062 3.03219 16.1196 2.02376 14.0657 1.61521C12.0117 1.20666 9.8828 1.41635 7.94806 2.21775C6.01331 3.01914 4.35966 4.37626 3.19621 6.11749C2.03275 7.85872 1.41176 9.90584 1.41176 12C1.41488 14.8072 2.53142 17.4986 4.51642 19.4836C6.50143 21.4686 9.19278 22.5851 12 22.5882ZM9.64706 8.29412L13.7647 12L9.64706 15.7059C9.57725 15.7675 9.52033 15.8423 9.47956 15.926C9.43879 16.0097 9.41499 16.1007 9.40952 16.1936C9.40405 16.2866 9.41703 16.3797 9.4477 16.4676C9.47837 16.5555 9.52613 16.6365 9.58823 16.7059C9.65573 16.7792 9.73752 16.8379 9.82858 16.8783C9.91963 16.9188 10.018 16.9402 10.1176 16.9412C10.2908 16.9421 10.4583 16.8793 10.5882 16.7647L15.2941 12.5294C15.3676 12.4622 15.4263 12.3804 15.4664 12.2892C15.5065 12.1981 15.5273 12.0996 15.5273 12C15.5273 11.9004 15.5065 11.8019 15.4664 11.7108C15.4263 11.6196 15.3676 11.5378 15.2941 11.4706L10.5882 7.23529C10.4478 7.11048 10.2636 7.04657 10.0761 7.0576C9.88852 7.06863 9.71304 7.15371 9.58823 7.29412C9.46343 7.43452 9.39951 7.61876 9.41054 7.8063C9.42157 7.99383 9.50665 8.16931 9.64706 8.29412Z" fill="#2791D6"/>
</svg>
