<svg width="15" height="16" viewBox="0 0 15 16" fill="none" xmlns="http://www.w3.org/2000/svg">
<path d="M15 8.00222C15.0008 6.75411 14.6899 5.52554 14.0955 4.42796C13.501 3.33037 12.6419 2.3985 11.596 1.71686C10.5501 1.03522 9.35054 0.625382 8.10608 0.524522C6.86162 0.423662 5.61165 0.634969 4.46957 1.13928C3.32748 1.64359 2.32941 2.42494 1.56588 3.41247C0.80235 4.39999 0.29752 5.56245 0.0971813 6.79439C-0.103158 8.02633 0.00733326 9.28877 0.418632 10.4672C0.829931 11.6457 1.52902 12.7028 2.4525 13.5428C2.47147 13.5664 2.49429 13.5867 2.52 13.6028C3.89227 14.8248 5.66596 15.5 7.50375 15.5C9.34154 15.5 11.1152 14.8248 12.4875 13.6028L12.5475 13.5428C13.3209 12.8419 13.9387 11.9866 14.3611 11.0323C14.7835 10.078 15.0012 9.04578 15 8.00222ZM0.6 8.00222C0.599909 6.86853 0.879352 5.7523 1.4136 4.75229C1.94785 3.75229 2.72044 2.89933 3.663 2.2689C4.60556 1.63847 5.68903 1.25001 6.81755 1.13788C7.94606 1.02575 9.08483 1.19342 10.1331 1.62604C11.1813 2.05866 12.1068 2.74291 12.8275 3.61822C13.5482 4.49354 14.042 5.53294 14.2651 6.64447C14.4883 7.75599 14.4339 8.90536 14.1068 9.99088C13.7798 11.0764 13.1901 12.0646 12.39 12.868C11.6452 11.6208 10.451 10.7059 9.0525 10.3114C9.70195 9.96529 10.217 9.41206 10.5158 8.73968C10.8146 8.0673 10.88 7.31436 10.7015 6.60058C10.5231 5.8868 10.1111 5.25313 9.53096 4.80033C8.95086 4.34752 8.23599 4.10157 7.5 4.10157C6.76401 4.10157 6.04914 4.34752 5.46904 4.80033C4.88894 5.25313 4.47692 5.8868 4.29847 6.60058C4.12002 7.31436 4.18539 8.0673 4.48418 8.73968C4.78297 9.41206 5.29804 9.96529 5.9475 10.3114C4.54903 10.7059 3.35477 11.6208 2.61 12.868C1.32353 11.5751 0.600962 9.82585 0.6 8.00222ZM7.5 10.1015C6.96599 10.1015 6.44397 9.9432 5.99996 9.64662C5.55595 9.35004 5.20988 8.9285 5.00552 8.43531C4.80117 7.94212 4.7477 7.39943 4.85188 6.87587C4.95606 6.3523 5.21321 5.87137 5.59081 5.4939C5.96841 5.11643 6.4495 4.85937 6.97325 4.75522C7.497 4.65108 8.03988 4.70453 8.53324 4.90882C9.0266 5.1131 9.44829 5.45905 9.74497 5.90291C10.0416 6.34677 10.2 6.8686 10.2 7.40243C10.2 8.11826 9.91553 8.80478 9.40919 9.31095C8.90284 9.81713 8.21608 10.1015 7.5 10.1015ZM3.0675 13.2804C3.51295 12.4979 4.15773 11.8473 4.93628 11.3948C5.71483 10.9422 6.59938 10.7038 7.5 10.7038C8.40061 10.7038 9.28517 10.9422 10.0637 11.3948C10.8423 11.8473 11.487 12.4979 11.9325 13.2804C10.6922 14.3255 9.12218 14.8987 7.5 14.8987C5.87781 14.8987 4.30784 14.3255 3.0675 13.2804Z" fill="black"/>
</svg>
