<svg width="18" height="18" viewBox="0 0 18 18" fill="none" xmlns="http://www.w3.org/2000/svg">
<path d="M7.33676 16.025C7.33676 16.2461 7.27128 16.4621 7.1486 16.6459C7.02593 16.8297 6.85156 16.973 6.64755 17.0576C6.44354 17.1422 6.21906 17.1643 6.00249 17.1212C5.78591 17.078 5.58698 16.9716 5.43084 16.8153C5.2747 16.659 5.16837 16.4598 5.12529 16.243C5.08221 16.0262 5.10432 15.8015 5.18882 15.5973C5.27332 15.3931 5.41642 15.2185 5.60002 15.0957C5.78363 14.9729 5.99948 14.9074 6.2203 14.9074C6.5164 14.9074 6.80038 15.0251 7.00976 15.2347C7.21914 15.4443 7.33676 15.7286 7.33676 16.025ZM14.514 14.9074C14.2932 14.9074 14.0774 14.9729 13.8938 15.0957C13.7102 15.2185 13.5671 15.3931 13.4826 15.5973C13.398 15.8015 13.3759 16.0262 13.419 16.243C13.4621 16.4598 13.5684 16.659 13.7246 16.8153C13.8807 16.9716 14.0796 17.078 14.2962 17.1212C14.5128 17.1643 14.7373 17.1422 14.9413 17.0576C15.1453 16.973 15.3197 16.8297 15.4423 16.6459C15.565 16.4621 15.6305 16.2461 15.6305 16.025C15.6305 15.7286 15.5129 15.4443 15.3035 15.2347C15.0941 15.0251 14.8101 14.9074 14.514 14.9074ZM17.983 4.65693L15.8777 12.0334C15.7711 12.4003 15.5489 12.7229 15.2443 12.9531C14.9396 13.1833 14.5688 13.3087 14.1871 13.3107H6.54726C6.16557 13.3087 5.79474 13.1833 5.49008 12.9531C5.18541 12.7229 4.96321 12.4003 4.85662 12.0334L2.75129 4.6729V4.64895L1.96976 1.93466C1.96235 1.90018 1.94317 1.86936 1.91552 1.84751C1.88786 1.82565 1.85347 1.81413 1.81824 1.81492H0.478485C0.351583 1.81492 0.229878 1.76445 0.140145 1.67462C0.0504116 1.5848 0 1.46296 0 1.33593C0 1.20889 0.0504116 1.08706 0.140145 0.997227C0.229878 0.907399 0.351583 0.856934 0.478485 0.856934H1.81824C2.06154 0.857796 2.29799 0.93763 2.49211 1.08445C2.68623 1.23128 2.82754 1.43717 2.89483 1.67122L3.57268 4.05021H17.5205C17.5948 4.05021 17.6681 4.06752 17.7345 4.10078C17.8009 4.13403 17.8587 4.18232 17.9033 4.24181C17.9474 4.30028 17.9776 4.36812 17.9914 4.44009C18.0052 4.51206 18.0024 4.58624 17.983 4.65693ZM16.8905 5.00819H3.84383L5.78169 11.77C5.82855 11.9373 5.92867 12.0847 6.06684 12.1899C6.20501 12.2951 6.37368 12.3522 6.54726 12.3527H14.1871C14.3606 12.3522 14.5293 12.2951 14.6675 12.1899C14.8057 12.0847 14.9058 11.9373 14.9526 11.77L16.8905 5.00819Z" fill="black"/>
</svg>
