<svg width="18" height="18" viewBox="0 0 18 18" fill="none" xmlns="http://www.w3.org/2000/svg">
<path d="M9 10.4167H1.91667C1.54094 10.4167 1.18061 10.2674 0.914932 10.0017C0.649255 9.73606 0.5 9.37572 0.5 9V1.91667C0.5 1.54094 0.649255 1.18061 0.914932 0.914932C1.18061 0.649255 1.54094 0.5 1.91667 0.5H9C9.37572 0.5 9.73606 0.649255 10.0017 0.914932C10.2674 1.18061 10.4167 1.54094 10.4167 1.91667V9C10.4167 9.37572 10.2674 9.73606 10.0017 10.0017C9.73606 10.2674 9.37572 10.4167 9 10.4167ZM1.91667 1.91667V9H9V1.91667H1.91667ZM16.0833 6.16667V9H13.25V6.16667H16.0833ZM16.0833 4.75H13.25C12.8743 4.75 12.5139 4.89926 12.2483 5.16493C11.9826 5.43061 11.8333 5.79094 11.8333 6.16667V9C11.8333 9.37572 11.9826 9.73606 12.2483 10.0017C12.5139 10.2674 12.8743 10.4167 13.25 10.4167H16.0833C16.4591 10.4167 16.8194 10.2674 17.0851 10.0017C17.3507 9.73606 17.5 9.37572 17.5 9V6.16667C17.5 5.79094 17.3507 5.43061 17.0851 5.16493C16.8194 4.89926 16.4591 4.75 16.0833 4.75ZM16.0833 13.25V16.0833H13.25V13.25H16.0833ZM16.0833 11.8333H13.25C12.8743 11.8333 12.5139 11.9826 12.2483 12.2483C11.9826 12.5139 11.8333 12.8743 11.8333 13.25V16.0833C11.8333 16.4591 11.9826 16.8194 12.2483 17.0851C12.5139 17.3507 12.8743 17.5 13.25 17.5H16.0833C16.4591 17.5 16.8194 17.3507 17.0851 17.0851C17.3507 16.8194 17.5 16.4591 17.5 16.0833V13.25C17.5 12.8743 17.3507 12.5139 17.0851 12.2483C16.8194 11.9826 16.4591 11.8333 16.0833 11.8333ZM9 13.25V16.0833H6.16667V13.25H9ZM9 11.8333H6.16667C5.79094 11.8333 5.43061 11.9826 5.16493 12.2483C4.89926 12.5139 4.75 12.8743 4.75 13.25V16.0833C4.75 16.4591 4.89926 16.8194 5.16493 17.0851C5.43061 17.3507 5.79094 17.5 6.16667 17.5H9C9.37572 17.5 9.73606 17.3507 10.0017 17.0851C10.2674 16.8194 10.4167 16.4591 10.4167 16.0833V13.25C10.4167 12.8743 10.2674 12.5139 10.0017 12.2483C9.73606 11.9826 9.37572 11.8333 9 11.8333Z" fill="#2D2D2D"/>
</svg>
