<svg width="19" height="15" viewBox="0 0 19 15" fill="none" xmlns="http://www.w3.org/2000/svg">
<path d="M0.75 7.5C0.75 9.48912 1.54018 11.3968 2.9467 12.8033C4.35322 14.2098 6.26088 15 8.25 15C10.2417 15 12.15 14.2167 13.5833 12.8333L12.3333 11.5833C11.8085 12.1387 11.1754 12.5805 10.473 12.8815C9.77071 13.1825 9.01411 13.3363 8.25 13.3333C3.05 13.3333 0.45 7.05 4.125 3.375C7.8 -0.3 14.0833 2.30833 14.0833 7.5H11.5833L14.9167 10.8333H15L18.25 7.5H15.75C15.75 5.51088 14.9598 3.60322 13.5533 2.1967C12.1468 0.790176 10.2391 0 8.25 0C6.26088 0 4.35322 0.790176 2.9467 2.1967C1.54018 3.60322 0.75 5.51088 0.75 7.5Z" fill="#505056"/>
</svg>
