<svg width="16" height="16" viewBox="0 0 16 16" fill="none" xmlns="http://www.w3.org/2000/svg">
<path d="M7.17659 13.9144L7.17587 13.9138C5.10604 12.0368 3.42828 10.5124 2.26213 9.08572C1.10148 7.66575 0.5 6.40378 0.5 5.06016C0.5 2.86489 2.21155 1.16016 4.4 1.16016C5.64085 1.16016 6.84006 1.74039 7.62058 2.6498L8 3.09187L8.37942 2.6498C9.15994 1.74039 10.3592 1.16016 11.6 1.16016C13.7885 1.16016 15.5 2.86489 15.5 5.06016C15.5 6.40378 14.8985 7.66575 13.7379 9.08572C12.5717 10.5124 10.894 12.0368 8.82413 13.9138L8.82341 13.9144L8 14.664L7.17659 13.9144Z" stroke="#2D2D2D"/>
</svg>
