<svg width="14" height="18" viewBox="0 0 14 18" fill="none" xmlns="http://www.w3.org/2000/svg">
<path d="M14 2.52693H11.95C11.7 1.50014 10.7 0.741211 9.5 0.741211C8.3 0.741211 7.3 1.50014 7.05 2.52693H0V3.41978H7.05C7.3 4.44657 8.3 5.2055 9.5 5.2055C10.7 5.2055 11.7 4.44657 11.95 3.41978H14V2.52693ZM9.5 4.31264C8.65 4.31264 8 3.73228 8 2.97335C8 2.21443 8.65 1.63407 9.5 1.63407C10.35 1.63407 11 2.21443 11 2.97335C11 3.73228 10.35 4.31264 9.5 4.31264ZM0 9.66978H2.05C2.3 10.6966 3.3 11.4555 4.5 11.4555C5.7 11.4555 6.7 10.6966 6.95 9.66978H14V8.77692H6.95C6.7 7.75014 5.7 6.99121 4.5 6.99121C3.3 6.99121 2.3 7.75014 2.05 8.77692H0V9.66978ZM4.5 7.88407C5.35 7.88407 6 8.46442 6 9.22335C6 9.98228 5.35 10.5626 4.5 10.5626C3.65 10.5626 3 9.98228 3 9.22335C3 8.46442 3.65 7.88407 4.5 7.88407Z" fill="#808080"/>
<path d="M14 14.5806H11.95C11.7 13.5539 10.7 12.7949 9.5 12.7949C8.3 12.7949 7.3 13.5539 7.05 14.5806H0V15.4735H7.05C7.3 16.5003 8.3 17.2592 9.5 17.2592C10.7 17.2592 11.7 16.5003 11.95 15.4735H14V14.5806ZM9.5 16.3664C8.65 16.3664 8 15.786 8 15.0271C8 14.2681 8.65 13.6878 9.5 13.6878C10.35 13.6878 11 14.2681 11 15.0271C11 15.786 10.35 16.3664 9.5 16.3664Z" fill="#808080"/>
</svg>
