<svg width="9" height="11" viewBox="0 0 9 11" fill="none" xmlns="http://www.w3.org/2000/svg">
<path d="M4.5 5.6051C4.80937 5.6051 5.07431 5.49524 5.29481 5.27552C5.51494 5.05617 5.625 4.79236 5.625 4.48408C5.625 4.1758 5.51494 3.9118 5.29481 3.69208C5.07431 3.47273 4.80937 3.36306 4.5 3.36306C4.19063 3.36306 3.92588 3.47273 3.70575 3.69208C3.48525 3.9118 3.375 4.1758 3.375 4.48408C3.375 4.79236 3.48525 5.05617 3.70575 5.27552C3.92588 5.49524 4.19063 5.6051 4.5 5.6051ZM4.5 9.72484C5.64375 8.67856 6.49219 7.72793 7.04531 6.87297C7.59844 6.01838 7.875 5.25945 7.875 4.59618C7.875 3.57792 7.54912 2.74407 6.89737 2.09462C6.246 1.44555 5.44688 1.12102 4.5 1.12102C3.55313 1.12102 2.75381 1.44555 2.10206 2.09462C1.45069 2.74407 1.125 3.57792 1.125 4.59618C1.125 5.25945 1.40156 6.01838 1.95469 6.87297C2.50781 7.72793 3.35625 8.67856 4.5 9.72484ZM4.5 11C4.425 11 4.35 10.986 4.275 10.958C4.2 10.9299 4.13438 10.8926 4.07812 10.8459C2.70937 9.64076 1.6875 8.52217 1.0125 7.49009C0.3375 6.45763 0 5.49299 0 4.59618C0 3.1949 0.452438 2.07856 1.35731 1.24713C2.26181 0.415711 3.30938 0 4.5 0C5.69062 0 6.73819 0.415711 7.64269 1.24713C8.54756 2.07856 9 3.1949 9 4.59618C9 5.49299 8.6625 6.45763 7.9875 7.49009C7.3125 8.52217 6.29063 9.64076 4.92188 10.8459C4.86562 10.8926 4.8 10.9299 4.725 10.958C4.65 10.986 4.575 11 4.5 11Z" fill="#505056"/>
</svg>
