<svg width="10" height="14" viewBox="0 0 10 14" fill="none" xmlns="http://www.w3.org/2000/svg">
<path opacity="0.2" d="M5 8.8421C4.40476 8.8421 3.89881 8.62719 3.48214 8.19737C3.06548 7.76754 2.85714 7.24561 2.85714 6.63158V2.21053C2.85714 1.59649 3.06548 1.07456 3.48214 0.644737C3.89881 0.214912 4.40476 0 5 0C5.59524 0 6.10119 0.214912 6.51786 0.644737C6.93452 1.07456 7.14286 1.59649 7.14286 2.21053V6.63158C7.14286 7.24561 6.93452 7.76754 6.51786 8.19737C6.10119 8.62719 5.59524 8.8421 5 8.8421ZM4.28571 14V11.7342C3.04762 11.5623 2.02381 10.9912 1.21429 10.0211C0.404762 9.05088 0 7.92105 0 6.63158H1.42857C1.42857 7.65088 1.77691 8.51961 2.47357 9.23779C3.16976 9.95646 4.0119 10.3158 5 10.3158C5.9881 10.3158 6.83048 9.95646 7.52714 9.23779C8.22333 8.51961 8.57143 7.65088 8.57143 6.63158H10C10 7.92105 9.59524 9.05088 8.78571 10.0211C7.97619 10.9912 6.95238 11.5623 5.71429 11.7342V14H4.28571Z" fill="black"/>
</svg>
