<svg width="13" height="12" viewBox="0 0 13 12" fill="none" xmlns="http://www.w3.org/2000/svg">
<path d="M8.75051 8.52832L9.78383 7.49459C9.923 7.35708 10.0991 7.26296 10.2907 7.22363C10.4823 7.18431 10.6812 7.20149 10.8633 7.27307L12.1226 7.77609C12.3066 7.8508 12.4643 7.97831 12.576 8.14256C12.6876 8.30681 12.7482 8.50045 12.75 8.69907V11.0065C12.7489 11.1416 12.7205 11.2751 12.6665 11.399C12.6125 11.5228 12.534 11.6345 12.4358 11.7272C12.3375 11.8199 12.2215 11.8917 12.0948 11.9384C11.968 11.985 11.8331 12.0056 11.6982 11.9987C2.87352 11.4495 1.09289 3.97343 0.756143 1.11221C0.740511 0.971699 0.754794 0.829474 0.798052 0.694886C0.84131 0.560298 0.912563 0.436399 1.00712 0.331338C1.10168 0.226277 1.21741 0.142436 1.34668 0.0853313C1.47596 0.0282263 1.61585 -0.00084875 1.75717 1.88606e-05H3.98526C4.18408 0.000607621 4.37819 0.0606895 4.5426 0.172537C4.70702 0.284384 4.83422 0.442881 4.90786 0.627643L5.41068 1.88751C5.48461 2.0689 5.50347 2.26807 5.46491 2.46013C5.42635 2.65218 5.33208 2.82862 5.19387 2.96739L4.16055 4.00112C4.16055 4.00112 4.75563 8.02991 8.75051 8.52832Z" fill="#11AFD1"/>
</svg>
