<svg width="17" height="17" viewBox="0 0 17 17" fill="none" xmlns="http://www.w3.org/2000/svg">
<path d="M17 1.21678C17 0.894072 16.8666 0.584579 16.6292 0.356388C16.3918 0.128197 16.0698 0 15.734 0H1.26596C0.930205 0 0.608203 0.128197 0.37079 0.356388C0.133377 0.584579 0 0.894072 0 1.21678V6.31858C0 13.9669 6.75479 16.5135 8.11117 16.9394C8.36357 17.0202 8.63643 17.0202 8.88883 16.9394C10.2452 16.5135 17 13.9669 17 6.31858V1.21678ZM8.55426 15.9486C8.5375 15.9569 8.51889 15.9613 8.5 15.9613C8.48111 15.9613 8.4625 15.9569 8.44574 15.9486C7.21596 15.5574 1.08511 13.2542 1.08511 6.31858V1.21678C1.08511 1.17068 1.10416 1.12647 1.13808 1.09387C1.17199 1.06127 1.21799 1.04296 1.26596 1.04296H15.734C15.782 1.04296 15.828 1.06127 15.8619 1.09387C15.8958 1.12647 15.9149 1.17068 15.9149 1.21678V6.31858C15.9149 13.2542 9.78404 15.5574 8.55426 15.9486ZM12.8676 5.03227C12.9167 5.08111 12.9552 5.13886 12.981 5.20215C13.0067 5.26544 13.0191 5.33301 13.0174 5.40094C13.0157 5.46887 13 5.5358 12.9712 5.59784C12.9423 5.65988 12.901 5.7158 12.8495 5.76234L7.55053 10.6295C7.44738 10.7223 7.31202 10.7749 7.17074 10.7772C7.03167 10.7772 6.89831 10.724 6.8 10.6295L4.15053 8.19591C4.04741 8.1014 3.98757 7.97138 3.98418 7.83447C3.98078 7.69756 4.03412 7.56495 4.13245 7.46584C4.23077 7.36672 4.36604 7.3092 4.50849 7.30594C4.65094 7.30268 4.7889 7.35394 4.89202 7.44845L7.17074 9.53437L12.108 5.01489C12.1588 4.96765 12.2189 4.9306 12.2847 4.90587C12.3506 4.88115 12.4209 4.86925 12.4915 4.87087C12.5622 4.87248 12.6319 4.88759 12.6964 4.91529C12.761 4.943 12.8191 4.98276 12.8676 5.03227Z" fill="black"/>
</svg>
