<svg width="14" height="13" viewBox="0 0 14 13" fill="none" xmlns="http://www.w3.org/2000/svg">
<path d="M4.48879 9.1414L11.8969 0.884839C12.1271 0.628279 12.42 0.5 12.7758 0.5C13.1315 0.5 13.4245 0.628279 13.6547 0.884839C13.8849 1.1414 14 1.46793 14 1.86443C14 2.26093 13.8849 2.58746 13.6547 2.84402L5.36771 12.0802C5.11659 12.3601 4.82362 12.5 4.48879 12.5C4.15396 12.5 3.86099 12.3601 3.60987 12.0802L0.345291 8.44169C0.115097 8.18513 0 7.8586 0 7.4621C0 7.0656 0.115097 6.73907 0.345291 6.48251C0.575485 6.22595 0.86846 6.09767 1.22422 6.09767C1.57997 6.09767 1.87294 6.22595 2.10314 6.48251L4.48879 9.1414Z" fill="#11AFD1"/>
</svg>
