<svg width="13" height="13" viewBox="0 0 13 13" fill="none" xmlns="http://www.w3.org/2000/svg">
<path d="M2.01099 0.0456543C1.13187 0.0456543 0.251648 0.704995 0.251648 2.02368L2.01099 5.54016L3.76923 2.02368C3.76923 0.704995 2.89011 0.0456543 2.01099 0.0456543ZM9.76648 1.11708C9.57692 1.12505 9.39286 1.16104 9.23901 1.19401L9.34341 1.67752C9.49725 1.64318 9.65659 1.62148 9.79121 1.61159L9.76648 1.11708ZM2.01099 1.14456C2.49725 1.14456 2.89011 1.53824 2.89011 2.02368C2.89011 2.50994 2.49725 2.9028 2.01099 2.9028C1.52555 2.9028 1.13187 2.50994 1.13187 2.02368C1.13187 1.53824 1.52555 1.14456 2.01099 1.14456ZM10.3132 1.15005L10.2308 1.63631C10.3654 1.66461 10.5 1.70005 10.6181 1.77093L10.8571 1.33686C10.6896 1.24758 10.5027 1.16736 10.3132 1.15005ZM8.73352 1.33412C8.56593 1.3995 8.39835 1.45802 8.25549 1.51543L8.45055 1.96873C8.60165 1.90445 8.76099 1.8484 8.8956 1.80115L8.73352 1.33412ZM11.3077 1.70225L10.9313 2.02368C11.0302 2.13686 11.1071 2.27642 11.1676 2.38906L11.6099 2.16653C11.5165 1.98659 11.4341 1.85032 11.3077 1.70225ZM7.7967 1.72697C7.62912 1.81241 7.49176 1.88851 7.34341 1.96324L7.58516 2.3973C7.72802 2.31488 7.88461 2.23521 8.01099 2.17203L7.7967 1.72697ZM6.90934 2.21873C6.76374 2.3039 6.62088 2.38906 6.48077 2.48247L6.75 2.89456C6.88462 2.80664 7.02472 2.72423 7.16209 2.64181L6.90934 2.21873ZM11.7802 2.71049C11.6181 2.73796 11.4533 2.75719 11.2912 2.77642C11.3022 2.91379 11.294 3.06214 11.2665 3.17752L11.7473 3.29016C11.7747 3.09236 11.7994 2.88906 11.7802 2.71049ZM6.06319 2.75719C5.92582 2.8506 5.79121 2.94675 5.65385 3.04016L5.93956 3.44401C6.07143 3.34785 6.20604 3.25719 6.34066 3.16379L6.06319 2.75719ZM5.25 3.33686C5.11264 3.43576 4.96978 3.54565 4.85165 3.63631L5.1511 4.02917C5.3022 3.91928 5.40659 3.83686 5.54396 3.73521L5.25 3.33686ZM11.1016 3.55664C11.0192 3.68302 10.9231 3.80939 10.8269 3.90554L11.1868 4.24895C11.3049 4.10884 11.4313 3.96598 11.5192 3.82313L11.1016 3.55664ZM4.45879 3.94401C4.32418 4.0484 4.18956 4.15554 4.07143 4.25445L4.38462 4.63631C4.51374 4.52917 4.6456 4.41928 4.76648 4.33137L4.45879 3.94401ZM10.4863 4.22148C10.3599 4.32313 10.228 4.42203 10.1071 4.50445L10.3901 4.91104C10.5357 4.81214 10.6786 4.70499 10.8022 4.60609L10.4863 4.22148ZM3.68956 4.57587C3.56044 4.68027 3.43681 4.79016 3.31044 4.8973L3.63187 5.27368C3.75549 5.16653 3.87912 5.05939 4.00549 4.95499L3.68956 4.57587ZM9.7033 4.76818C9.56319 4.8506 9.41758 4.93576 9.28571 5.00719L9.52198 5.44401C9.67033 5.35335 9.83791 5.27368 9.96154 5.19126L9.7033 4.76818ZM2.93407 5.22423C2.81044 5.33412 2.68956 5.44401 2.56593 5.55664L2.89835 5.92477C3.01923 5.81488 3.14286 5.70499 3.26374 5.5951L2.93407 5.22423ZM8.8544 5.23521C8.70879 5.30664 8.56319 5.38082 8.41758 5.45225L8.62912 5.8973C8.79945 5.81488 8.92582 5.7462 9.07967 5.67477L8.8544 5.23521ZM7.97527 5.65829C7.82418 5.72697 7.67857 5.79291 7.52472 5.85609L7.72527 6.30939C7.87637 6.24346 8.02747 6.17478 8.17857 6.10609L7.97527 5.65829ZM2.2033 5.8973C2.06319 6.02093 1.96566 6.11708 1.83791 6.24071L2.18681 6.59785C2.31593 6.47423 2.42033 6.36708 2.54121 6.26269L2.2033 5.8973ZM7.07418 6.05664C6.92308 6.11983 6.77198 6.18576 6.62088 6.24895L6.81319 6.70774C6.96703 6.64456 7.11813 6.57862 7.26923 6.51269L7.07418 6.05664ZM6.16483 6.44126C6.01374 6.50719 5.86264 6.57313 5.70879 6.63357L5.9011 7.09236C6.0522 7.02917 6.20604 6.96324 6.35714 6.90005L6.16483 6.44126ZM11.2418 6.63906C10.3626 6.63906 9.48352 7.2984 9.48352 8.61708L11.2418 12.1336L13 8.61708C13 7.2984 12.1209 6.63906 11.2418 6.63906ZM5.25275 6.82587C5.09615 6.8973 4.93132 6.96324 4.7967 7.02093L4.99176 7.47697C5.15385 7.40829 5.30769 7.34236 5.44506 7.28192L5.25275 6.82587ZM4.34066 7.21598C4.19231 7.28466 4.01923 7.36159 3.88736 7.42203L4.09066 7.87258C4.25275 7.80115 4.3956 7.72972 4.53846 7.66928L4.34066 7.21598ZM3.43407 7.62807C3.28022 7.70225 3.12088 7.77917 2.98352 7.84785L3.20604 8.29016C3.3544 8.21324 3.50824 8.14181 3.64286 8.07587L3.43407 7.62807ZM11.2418 7.73796C11.728 7.73796 12.1209 8.13082 12.1209 8.61708C12.1209 9.10335 11.728 9.4962 11.2418 9.4962C10.7555 9.4962 10.3626 9.10335 10.3626 8.61708C10.3626 8.13082 10.7555 7.73796 11.2418 7.73796ZM2.53846 8.07587C2.39286 8.15554 2.24725 8.23796 2.0989 8.32313L2.34615 8.7517C2.48626 8.66928 2.62912 8.59236 2.77198 8.51543L2.53846 8.07587ZM1.66758 8.58961C1.51346 8.67752 1.36456 8.79565 1.23626 8.88082L1.53571 9.27642C1.67225 9.17752 1.81923 9.07587 1.93681 9.00445L1.66758 8.58961ZM0.846154 9.21049C0.714286 9.33137 0.584341 9.47148 0.483516 9.58961L0.85989 9.91104C0.965659 9.78192 1.05769 9.68576 1.18132 9.57587L0.846154 9.21049ZM6.82967 9.2462L6.87363 9.73796C7.01648 9.71324 7.15934 9.72972 7.3022 9.7517L7.38736 9.26543C7.20604 9.23796 7.01374 9.21873 6.82967 9.2462ZM5.80769 9.52093L5.99451 9.97972C6.13736 9.91653 6.28571 9.86708 6.43681 9.82038C6.38461 9.66378 6.34615 9.50445 6.30494 9.3451C6.13187 9.39456 5.95879 9.46049 5.80769 9.52093ZM7.93681 9.4962L7.65659 9.9028C7.77198 9.98796 7.88462 10.0786 7.97527 10.1913L8.3489 9.86708C8.20879 9.72423 8.10165 9.58961 7.93681 9.4962ZM5.34066 9.74346C5.18956 9.82038 5.04396 9.90829 4.89835 9.99346L5.14835 10.4193C5.29121 10.3424 5.43132 10.2517 5.57143 10.1775L5.34066 9.74346ZM0.181593 10.0457C0.0986264 10.2242 0.0313187 10.4165 0 10.5869L0.486264 10.672C0.515934 10.5154 0.558516 10.4028 0.620879 10.2682C0.470055 10.2022 0.326099 10.1226 0.181593 10.0457ZM4.46978 10.2599C4.32967 10.3506 4.19231 10.4413 4.05494 10.5347L4.32967 10.9468C4.46703 10.8561 4.60165 10.7627 4.73901 10.672L4.46978 10.2599ZM8.66483 10.2929L8.25 10.5621C8.33791 10.694 8.42308 10.8314 8.50275 10.9715L8.93132 10.7242C8.83516 10.5704 8.76648 10.433 8.66483 10.2929ZM3.6456 10.8149C3.50824 10.9055 3.37088 10.9935 3.23626 11.0896L3.51099 11.5017C3.64286 11.4055 3.78297 11.3149 3.92308 11.2215L3.6456 10.8149ZM0.491758 11.0759C0.332692 11.1088 0.172253 11.1363 0.0123627 11.1665C0.0412088 11.3588 0.118407 11.5457 0.188187 11.694L0.634615 11.4797C0.575 11.3424 0.518407 11.1995 0.491758 11.0759ZM9.17582 11.1528L8.74725 11.4C8.83242 11.5484 8.93132 11.7077 9.01099 11.8341L9.42582 11.5676C9.33242 11.422 9.25275 11.2847 9.17582 11.1528ZM2.82967 11.3588C2.69231 11.444 2.55769 11.5264 2.41483 11.6061L2.65934 12.0374C2.80494 11.9522 2.95055 11.8671 3.09066 11.7764L2.82967 11.3588ZM0.870879 11.8066L0.532967 12.1693C0.685714 12.3149 0.874176 12.411 1.07967 12.455L1.18956 11.9742C1.06758 11.9495 0.953571 11.8891 0.870879 11.8066ZM1.99725 11.8149C1.85962 11.8781 1.71676 11.9275 1.56868 11.9577L1.68132 12.4413C1.85769 12.4055 2.02363 12.3396 2.18956 12.2709L1.99725 11.8149ZM9.6978 11.9468L9.31593 12.2572C9.43407 12.4028 9.57967 12.5429 9.70604 12.6418L10.011 12.2517C9.89011 12.1583 9.78571 12.0457 9.6978 11.9468ZM10.3599 12.4275L10.2363 12.9083C10.4533 12.9522 10.6154 12.966 10.8187 12.944L10.7582 12.4522C10.6236 12.4742 10.4918 12.4605 10.3599 12.4275Z" fill="#505056"/>
</svg>
