<svg width="13" height="15" viewBox="0 0 13 15" fill="none" xmlns="http://www.w3.org/2000/svg">
<path d="M10.3333 10.3956C9.82665 10.3956 9.37331 10.6064 9.02665 10.9367L4.27331 8.02008C4.30665 7.85843 4.33331 7.69679 4.33331 7.52811C4.33331 7.35944 4.30665 7.19779 4.27331 7.03614L8.97331 4.14759C9.33331 4.499 9.80665 4.71687 10.3333 4.71687C11.44 4.71687 12.3333 3.7751 12.3333 2.60843C12.3333 1.44177 11.44 0.5 10.3333 0.5C9.22665 0.5 8.33331 1.44177 8.33331 2.60843C8.33331 2.77711 8.35998 2.93875 8.39331 3.1004L3.69331 5.98896C3.33331 5.63755 2.85998 5.41968 2.33331 5.41968C1.22665 5.41968 0.333313 6.36145 0.333313 7.52811C0.333313 8.69478 1.22665 9.63655 2.33331 9.63655C2.85998 9.63655 3.33331 9.41867 3.69331 9.06727L8.43998 11.991C8.40665 12.1386 8.38665 12.2932 8.38665 12.4478C8.38665 13.5793 9.25998 14.5 10.3333 14.5C11.4066 14.5 12.28 13.5793 12.28 12.4478C12.28 11.3163 11.4066 10.3956 10.3333 10.3956Z" fill="#505056"/>
</svg>
