<svg width="36" height="36" viewBox="0 0 36 36" fill="none" xmlns="http://www.w3.org/2000/svg">
<path d="M4 8C5.06087 8 6.07828 7.57857 6.82843 6.82843C7.57857 6.07828 8 5.06087 8 4C8 2.93913 7.57857 1.92172 6.82843 1.17157C6.07828 0.421427 5.06087 0 4 0C2.93913 0 1.92172 0.421427 1.17157 1.17157C0.421427 1.92172 0 2.93913 0 4C0 5.06087 0.421427 6.07828 1.17157 6.82843C1.92172 7.57857 2.93913 8 4 8ZM18 8C19.0609 8 20.0783 7.57857 20.8284 6.82843C21.5786 6.07828 22 5.06087 22 4C22 2.93913 21.5786 1.92172 20.8284 1.17157C20.0783 0.421427 19.0609 0 18 0C16.9391 0 15.9217 0.421427 15.1716 1.17157C14.4214 1.92172 14 2.93913 14 4C14 5.06087 14.4214 6.07828 15.1716 6.82843C15.9217 7.57857 16.9391 8 18 8ZM32 8C33.0609 8 34.0783 7.57857 34.8284 6.82843C35.5786 6.07828 36 5.06087 36 4C36 2.93913 35.5786 1.92172 34.8284 1.17157C34.0783 0.421427 33.0609 0 32 0C30.9391 0 29.9217 0.421427 29.1716 1.17157C28.4214 1.92172 28 2.93913 28 4C28 5.06087 28.4214 6.07828 29.1716 6.82843C29.9217 7.57857 30.9391 8 32 8ZM4 22C5.06087 22 6.07828 21.5786 6.82843 20.8284C7.57857 20.0783 8 19.0609 8 18C8 16.9391 7.57857 15.9217 6.82843 15.1716C6.07828 14.4214 5.06087 14 4 14C2.93913 14 1.92172 14.4214 1.17157 15.1716C0.421427 15.9217 0 16.9391 0 18C0 19.0609 0.421427 20.0783 1.17157 20.8284C1.92172 21.5786 2.93913 22 4 22ZM18 22C19.0609 22 20.0783 21.5786 20.8284 20.8284C21.5786 20.0783 22 19.0609 22 18C22 16.9391 21.5786 15.9217 20.8284 15.1716C20.0783 14.4214 19.0609 14 18 14C16.9391 14 15.9217 14.4214 15.1716 15.1716C14.4214 15.9217 14 16.9391 14 18C14 19.0609 14.4214 20.0783 15.1716 20.8284C15.9217 21.5786 16.9391 22 18 22ZM32 22C33.0609 22 34.0783 21.5786 34.8284 20.8284C35.5786 20.0783 36 19.0609 36 18C36 16.9391 35.5786 15.9217 34.8284 15.1716C34.0783 14.4214 33.0609 14 32 14C30.9391 14 29.9217 14.4214 29.1716 15.1716C28.4214 15.9217 28 16.9391 28 18C28 19.0609 28.4214 20.0783 29.1716 20.8284C29.9217 21.5786 30.9391 22 32 22ZM4 36C5.06087 36 6.07828 35.5786 6.82843 34.8284C7.57857 34.0783 8 33.0609 8 32C8 30.9391 7.57857 29.9217 6.82843 29.1716C6.07828 28.4214 5.06087 28 4 28C2.93913 28 1.92172 28.4214 1.17157 29.1716C0.421427 29.9217 0 30.9391 0 32C0 33.0609 0.421427 34.0783 1.17157 34.8284C1.92172 35.5786 2.93913 36 4 36ZM18 36C19.0609 36 20.0783 35.5786 20.8284 34.8284C21.5786 34.0783 22 33.0609 22 32C22 30.9391 21.5786 29.9217 20.8284 29.1716C20.0783 28.4214 19.0609 28 18 28C16.9391 28 15.9217 28.4214 15.1716 29.1716C14.4214 29.9217 14 30.9391 14 32C14 33.0609 14.4214 34.0783 15.1716 34.8284C15.9217 35.5786 16.9391 36 18 36ZM32 36C33.0609 36 34.0783 35.5786 34.8284 34.8284C35.5786 34.0783 36 33.0609 36 32C36 30.9391 35.5786 29.9217 34.8284 29.1716C34.0783 28.4214 33.0609 28 32 28C30.9391 28 29.9217 28.4214 29.1716 29.1716C28.4214 29.9217 28 30.9391 28 32C28 33.0609 28.4214 34.0783 29.1716 34.8284C29.9217 35.5786 30.9391 36 32 36Z" fill="#2791D6"/>
</svg>
