<svg width="15" height="14" viewBox="0 0 15 14" fill="none" xmlns="http://www.w3.org/2000/svg">
<path d="M14.7471 1.7226C14.6833 1.24864 14.4359 0.812463 14.0512 0.495485C13.6666 0.178506 13.1709 0.00238691 12.6566 0H2.34336C1.83042 0.00213956 1.33576 0.177159 0.951279 0.492542C0.566794 0.807926 0.318626 1.24223 0.25288 1.71477L0 3.64877C0.000334897 4.02823 0.0877144 4.40327 0.256318 4.7489C0.424921 5.09454 0.670878 5.40283 0.977803 5.65324V12.0425C0.977803 12.5617 1.19982 13.0596 1.59503 13.4267C1.99023 13.7938 2.52624 14 3.08514 14H11.9107C12.4696 14 13.0056 13.7938 13.4008 13.4267C13.796 13.0596 14.018 12.5617 14.018 12.0425V5.65324C14.3257 5.40319 14.5724 5.09506 14.7418 4.7494C14.9111 4.40375 14.9991 4.02853 15 3.64877L14.7471 1.7226ZM9.19219 13.217H5.82046V10.0224C5.82046 9.71087 5.95367 9.41214 6.19079 9.19188C6.42791 8.97162 6.74952 8.84787 7.08486 8.84787H7.92779C8.26313 8.84787 8.58473 8.97162 8.82185 9.19188C9.05898 9.41214 9.19219 9.71087 9.19219 10.0224V13.217ZM13.1793 12.0425C13.1793 12.354 13.0461 12.6527 12.8089 12.873C12.5718 13.0933 12.2502 13.217 11.9149 13.217H10.0351V10.0224C10.0351 9.50321 9.8131 9.00531 9.4179 8.63821C9.0227 8.27111 8.48669 8.06488 7.92779 8.06488H7.08486C6.52596 8.06488 5.98995 8.27111 5.59475 8.63821C5.19954 9.00531 4.97752 9.50321 4.97752 10.0224V13.217H3.08514C2.7498 13.217 2.42819 13.0933 2.19107 12.873C1.95395 12.6527 1.82074 12.354 1.82074 12.0425V6.11521C2.1524 6.24127 2.50763 6.30514 2.86597 6.30313C3.27976 6.30492 3.68893 6.22241 4.06467 6.06143C4.44042 5.90044 4.7736 5.66489 5.04074 5.37136C5.07881 5.33617 5.13033 5.31642 5.18404 5.31642C5.23775 5.31642 5.28927 5.33617 5.32734 5.37136C5.59449 5.66489 5.92766 5.90044 6.30341 6.06143C6.67915 6.22241 7.08832 6.30492 7.50211 6.30313C7.9177 6.30477 8.32868 6.22226 8.70645 6.06135C9.08421 5.90043 9.41969 5.66497 9.68952 5.37136C9.70675 5.35412 9.72762 5.34036 9.75082 5.33093C9.77402 5.3215 9.79906 5.31661 9.82439 5.31656C9.85099 5.31641 9.87736 5.32118 9.90197 5.33059C9.92657 5.34 9.94891 5.35386 9.96769 5.37136C10.2348 5.66489 10.568 5.90044 10.9438 6.06143C11.3195 6.22241 11.7287 6.30492 12.1425 6.30313C12.4981 6.30514 12.8505 6.24126 13.1793 6.11521V12.0425ZM12.1425 5.52013C11.8513 5.5214 11.5634 5.46394 11.2985 5.35174C11.0337 5.23953 10.7982 5.07525 10.6083 4.87025C10.5134 4.76487 10.3948 4.68012 10.2608 4.62194C10.1268 4.56377 9.98072 4.5336 9.83282 4.53356H9.82439C9.6771 4.53232 9.5313 4.56113 9.39731 4.61795C9.26331 4.67477 9.14437 4.75823 9.04889 4.86242C8.85337 5.0605 8.61565 5.21866 8.35083 5.32685C8.086 5.43505 7.79985 5.49092 7.51054 5.49092C7.22123 5.49092 6.93507 5.43505 6.67025 5.32685C6.40542 5.21866 6.1677 5.0605 5.97218 4.86242C5.8741 4.7591 5.75347 4.67636 5.61831 4.61969C5.48314 4.56301 5.33655 4.5337 5.18826 4.5337C5.03996 4.5337 4.89337 4.56301 4.7582 4.61969C4.62304 4.67636 4.50241 4.7591 4.40433 4.86242C4.13828 5.15079 3.78459 5.3577 3.38968 5.45599C2.99476 5.55429 2.57708 5.53936 2.19146 5.41319C1.80584 5.28701 1.4703 5.05548 1.22888 4.74898C0.98747 4.44248 0.851463 4.07534 0.838719 3.69575L1.0916 1.81655C1.13163 1.53257 1.28077 1.27158 1.51156 1.08166C1.74235 0.891737 2.03925 0.785672 2.34757 0.782998H12.6566C12.9658 0.782837 13.2644 0.887915 13.4958 1.07836C13.7272 1.26881 13.8755 1.53143 13.9126 1.81655L14.1571 3.66443C14.1522 4.15858 13.9372 4.6309 13.5591 4.9785C13.1809 5.32609 12.6702 5.52077 12.1382 5.52013H12.1425Z" fill="#505056"/>
</svg>
