<svg width="11" height="14" viewBox="0 0 11 14" fill="none" xmlns="http://www.w3.org/2000/svg">
<path d="M5.5 6.875C4.74375 6.875 4.125 6.25625 4.125 5.5C4.125 4.74375 4.74375 4.125 5.5 4.125C6.25625 4.125 6.875 4.74375 6.875 5.5C6.875 6.25625 6.25625 6.875 5.5 6.875ZM9.625 5.6375C9.625 3.14187 7.80312 1.375 5.5 1.375C3.19688 1.375 1.375 3.14187 1.375 5.6375C1.375 7.24625 2.71562 9.3775 5.5 11.9213C8.28438 9.3775 9.625 7.24625 9.625 5.6375ZM5.5 0C8.3875 0 11 2.21375 11 5.6375C11 7.92 9.16438 10.6219 5.5 13.75C1.83563 10.6219 0 7.92 0 5.6375C0 2.21375 2.6125 0 5.5 0Z" fill="#24263F"/>
</svg>
