<svg width="25" height="26" viewBox="0 0 25 26" fill="none" xmlns="http://www.w3.org/2000/svg">
<path d="M12.5 15.625C10.9701 15.6237 9.46086 15.9784 8.09173 16.6611C7.43233 16.9899 6.46695 17.504 5.55192 18.0859C4.65379 18.6572 3.74195 19.3319 3.24621 19.9912L2.99691 20.3227L3.27671 20.6289C3.77789 21.1775 4.52149 21.8368 5.29898 22.4291C6.07327 23.0189 6.9136 23.5673 7.61104 23.8743C8.95328 24.4652 11.0107 24.9598 12.5 24.9583M12.5 15.625C14.0299 15.6237 15.5391 15.9784 16.9083 16.6611C17.5677 16.9899 18.533 17.504 19.4481 18.0859C20.3462 18.6572 21.258 19.3319 21.7538 19.9912L22.0031 20.3227L21.7233 20.6289C21.2221 21.1775 20.4785 21.8368 19.701 22.4291C18.9267 23.0189 18.0864 23.5673 17.389 23.8743C16.0467 24.4652 13.9893 24.9598 12.5 24.9583M12.5 15.625C12.4998 15.625 12.4997 15.625 12.4995 15.625L12.5 16.125L12.5005 15.625C12.5003 15.625 12.5001 15.625 12.5 15.625ZM12.5 24.9583C12.4998 24.9583 12.4996 24.9583 12.4995 24.9583L12.5 24.4583L12.5005 24.9583C12.5004 24.9583 12.5002 24.9583 12.5 24.9583ZM24.5 13C24.5 16.1826 23.2357 19.2348 20.9853 21.4853C18.7348 23.7357 15.6826 25 12.5 25C9.3174 25 6.26515 23.7357 4.01472 21.4853C1.76428 19.2348 0.5 16.1826 0.5 13C0.5 9.8174 1.76428 6.76515 4.01472 4.51472C6.26515 2.26428 9.3174 1 12.5 1C15.6826 1 18.7348 2.26428 20.9853 4.51472C23.2357 6.76515 24.5 9.8174 24.5 13ZM15.6157 12.2094C16.442 11.3831 16.9062 10.2624 16.9062 9.09375C16.9062 7.92514 16.442 6.80439 15.6157 5.97806C14.7894 5.15173 13.6686 4.6875 12.5 4.6875C11.3314 4.6875 10.2106 5.15173 9.38431 5.97806C8.55798 6.80439 8.09375 7.92514 8.09375 9.09375C8.09375 10.2624 8.55798 11.3831 9.38431 12.2094C10.2106 13.0358 11.3314 13.5 12.5 13.5C13.6686 13.5 14.7894 13.0358 15.6157 12.2094Z" stroke="#505056"/>
</svg>
