<svg width="15" height="14" viewBox="0 0 15 14" fill="none" xmlns="http://www.w3.org/2000/svg">
<path d="M14.1 2.90566H10.785C10.7068 2.11049 10.327 1.37222 9.71956 0.834954C9.11215 0.297689 8.32081 0 7.5 0C6.6792 0 5.88785 0.297689 5.28044 0.834954C4.67304 1.37222 4.29317 2.11049 4.215 2.90566H0.9C0.661305 2.90566 0.432387 2.99794 0.263604 3.1622C0.0948212 3.32645 0 3.54923 0 3.78153V13.1241C0 13.3564 0.0948212 13.5792 0.263604 13.7435C0.432387 13.9077 0.661305 14 0.9 14H14.1C14.3387 14 14.5676 13.9077 14.7364 13.7435C14.9052 13.5792 15 13.3564 15 13.1241V3.78153C15 3.54923 14.9052 3.32645 14.7364 3.1622C14.5676 2.99794 14.3387 2.90566 14.1 2.90566ZM7.5 0.570011C8.16397 0.5712 8.80434 0.809785 9.29938 1.24041C9.79441 1.67104 10.1096 2.26367 10.185 2.90566H4.815C4.89041 2.26367 5.20559 1.67104 5.70062 1.24041C6.19566 0.809785 6.83603 0.5712 7.5 0.570011ZM14.4 13.1241C14.4 13.2016 14.3684 13.2758 14.3121 13.3306C14.2559 13.3853 14.1796 13.4161 14.1 13.4161H0.9C0.820435 13.4161 0.744129 13.3853 0.687868 13.3306C0.631607 13.2758 0.6 13.2016 0.6 13.1241V3.78153C0.6 3.7041 0.631607 3.62984 0.687868 3.57508C0.744129 3.52033 0.820435 3.48957 0.9 3.48957H4.2V5.53327C4.2 5.6107 4.23161 5.68496 4.28787 5.73971C4.34413 5.79446 4.42044 5.82522 4.5 5.82522C4.57957 5.82522 4.65587 5.79446 4.71213 5.73971C4.76839 5.68496 4.8 5.6107 4.8 5.53327V3.48957H10.2V5.53327C10.2 5.6107 10.2316 5.68496 10.2879 5.73971C10.3441 5.79446 10.4204 5.82522 10.5 5.82522C10.5796 5.82522 10.6559 5.79446 10.7121 5.73971C10.7684 5.68496 10.8 5.6107 10.8 5.53327V3.48957H14.1C14.1796 3.48957 14.2559 3.52033 14.3121 3.57508C14.3684 3.62984 14.4 3.7041 14.4 3.78153V13.1241Z" fill="#505056"/>
</svg>
