<svg width="25" height="24" viewBox="0 0 25 24" fill="none" xmlns="http://www.w3.org/2000/svg">
<path d="M12.5 0C14.8734 0 17.1934 0.703787 19.1668 2.02236C21.1402 3.34094 22.6783 5.21508 23.5865 7.4078C24.4948 9.60051 24.7324 12.0133 24.2694 14.3411C23.8064 16.6689 22.6635 18.807 20.9853 20.4853C19.307 22.1635 17.1689 23.3064 14.8411 23.7694C12.5133 24.2324 10.1005 23.9948 7.9078 23.0865C5.71509 22.1783 3.84094 20.6402 2.52236 18.6668C1.20379 16.6934 0.5 14.3734 0.5 12C0.506218 8.81931 1.7725 5.77068 4.02159 3.52159C6.27068 1.2725 9.31931 0.00621837 12.5 0ZM12.5 22.5882C14.5942 22.5882 16.6413 21.9672 18.3825 20.8038C20.1237 19.6403 21.4809 17.9867 22.2822 16.0519C23.0836 14.1172 23.2933 11.9883 22.8848 9.93434C22.4762 7.88042 21.4678 5.99378 19.987 4.51299C18.5062 3.03219 16.6196 2.02376 14.5657 1.61521C12.5117 1.20666 10.3828 1.41635 8.44806 2.21775C6.51331 3.01914 4.85966 4.37626 3.69621 6.11749C2.53275 7.85872 1.91176 9.90584 1.91176 12C1.91488 14.8072 3.03142 17.4986 5.01642 19.4836C7.00143 21.4686 9.69278 22.5851 12.5 22.5882ZM10.1471 8.29412L14.2647 12L10.1471 15.7059C10.0773 15.7675 10.0203 15.8423 9.97956 15.926C9.93879 16.0097 9.91499 16.1007 9.90952 16.1936C9.90405 16.2866 9.91703 16.3797 9.9477 16.4676C9.97837 16.5555 10.0261 16.6365 10.0882 16.7059C10.1557 16.7792 10.2375 16.8379 10.3286 16.8783C10.4196 16.9188 10.518 16.9402 10.6176 16.9412C10.7908 16.9421 10.9583 16.8793 11.0882 16.7647L15.7941 12.5294C15.8676 12.4622 15.9263 12.3804 15.9664 12.2892C16.0065 12.1981 16.0273 12.0996 16.0273 12C16.0273 11.9004 16.0065 11.8019 15.9664 11.7108C15.9263 11.6196 15.8676 11.5378 15.7941 11.4706L11.0882 7.23529C10.9478 7.11048 10.7636 7.04657 10.5761 7.0576C10.3885 7.06863 10.213 7.15371 10.0882 7.29412C9.96343 7.43452 9.89951 7.61876 9.91054 7.8063C9.92157 7.99383 10.0066 8.16931 10.1471 8.29412Z" fill="#2791D6"/>
</svg>
