<svg width="8" height="8" viewBox="0 0 8 8" fill="none" xmlns="http://www.w3.org/2000/svg">
<path d="M3.6 5.2H4.4V6H3.6V5.2ZM3.6 2H4.4V4.4H3.6V2ZM4 0C1.788 0 0 1.8 0 4C0 5.06087 0.421427 6.07828 1.17157 6.82843C1.54301 7.19986 1.98396 7.4945 2.46927 7.69552C2.95457 7.89654 3.47471 8 4 8C5.06087 8 6.07828 7.57857 6.82843 6.82843C7.57857 6.07828 8 5.06087 8 4C8 3.47471 7.89654 2.95457 7.69552 2.46927C7.4945 1.98396 7.19986 1.54301 6.82843 1.17157C6.45699 0.800139 6.01604 0.505501 5.53073 0.304482C5.04543 0.103463 4.52529 0 4 0ZM4 7.2C3.15131 7.2 2.33737 6.86286 1.73726 6.26274C1.13714 5.66263 0.8 4.84869 0.8 4C0.8 3.15131 1.13714 2.33737 1.73726 1.73726C2.33737 1.13714 3.15131 0.8 4 0.8C4.84869 0.8 5.66263 1.13714 6.26274 1.73726C6.86286 2.33737 7.2 3.15131 7.2 4C7.2 4.84869 6.86286 5.66263 6.26274 6.26274C5.66263 6.86286 4.84869 7.2 4 7.2Z" fill="#808080"/>
</svg>
